<svg xmlns="http://www.w3.org/2000/svg" xmlns:xlink="http://www.w3.org/1999/xlink" width="860" height="581.04"><rect width="860" height="581.04" rx="5" ry="5" class="a"/><svg y="0%" x="0%"><circle cx="20" cy="20" r="6" fill="#ff5f58"/><circle cx="40" cy="20" r="6" fill="#ffbd2e"/><circle cx="60" cy="20" r="6" fill="#18c132"/></svg><svg height="521.04" viewBox="0 0 82 52.104" width="820" x="15" xmlns="http://www.w3.org/2000/svg" xmlns:xlink="http://www.w3.org/1999/xlink" y="50"><style>@keyframes l{0%{transform:translateX(0)}1.5%{transform:translateX(-82px)}3.6%{transform:translateX(-164px)}3.7%{transform:translateX(-246px)}3.8%{transform:translateX(-328px)}4.5%{transform:translateX(-574px)}4.6%{transform:translateX(-656px)}4.7%{transform:translateX(-738px)}34.7%{transform:translateX(-820px)}34.9%{transform:translateX(-984px)}35.2%{transform:translateX(-1230px)}35.7%{transform:translateX(-1312px)}36%{transform:translateX(-1394px)}36.3%{transform:translateX(-1476px)}36.4%{transform:translateX(-1640px)}96.7%{transform:translateX(-1722px)}97.1%{transform:translateX(-1804px)}97.3%{transform:translateX(-1886px)}97.8%{transform:translateX(-2132px)}98.1%{transform:translateX(-2296px)}99.3%{transform:translateX(-2378px)}99.4%{transform:translateX(-2460px)}99.5%{transform:translateX(-2542px)}99.6%{transform:translateX(-2624px)}99.7%{transform:translateX(-2706px)}99.8%{transform:translateX(-2788px)}to{transform:translateX(-3034px)}}.a{fill:#282d35}.f,.h{fill:#b9c0cb}.f{white-space:pre}.h{font-weight:700}.h,.i,.j{white-space:pre}.i{fill:#71bef2;font-weight:700}.j{fill:#a8cc8c}</style><g font-family="Monaco,Consolas,Menlo,'Bitstream Vera Sans Mono','Powerline Symbols',monospace" font-size="1.67"><defs><symbol id="1"><text y="1.67" class="f">===</text><text x="4.008" y="1.67" class="f">Powder</text><text x="11.022" y="1.67" class="f">lease-race</text><text x="22.044" y="1.67" class="f">demo</text><text x="27.054" y="1.67" class="f">===</text></symbol><symbol id="2"><text y="1.67" class="f">card:</text><text x="6.012" y="1.67" class="f">lease-race-demo-1784052358</text></symbol><symbol id="3"><text y="1.67" class="f">claim</text><text x="6.012" y="1.67" class="f">TTL:</text><text x="11.022" y="1.67" class="f">2s</text><text x="14.028" y="1.67" class="f">|</text><text x="16.032" y="1.67" class="f">poll</text><text x="21.042" y="1.67" class="f">timeout:</text><text x="30.06" y="1.67" class="f">10s</text></symbol><symbol id="4"><text y="1.67" class="f">----------------------------------------------------------------------</text></symbol><symbol id="5"><text y="1.67" class="f">[boot]</text><text x="7.014" y="1.67" class="f">building</text><text x="16.032" y="1.67" class="f">powder-server</text><text x="30.06" y="1.67" class="f">(release)</text></symbol><symbol id="6"><text x="4.008" y="1.67" style="white-space:pre" fill="#a8cc8c" font-weight="700">Finished</text><text x="13.026" y="1.67" class="f">`release`</text><text x="23.046" y="1.67" class="f">profile</text><text x="31.062" y="1.67" class="f">[optimized]</text><text x="43.086" y="1.67" class="f">target(s)</text><text x="53.106" y="1.67" class="f">in</text><text x="56.112" y="1.67" class="f">0.08s</text></symbol><symbol id="7"><text y="1.67" class="f">[boot]</text><text x="7.014" y="1.67" class="f">starting</text><text x="16.032" y="1.67" class="f">powder-server</text><text x="30.06" y="1.67" class="f">on</text><text x="33.066" y="1.67" class="f">http://127.0.0.1:62580</text><text x="56.112" y="1.67" class="f">against</text><text x="64.128" y="1.67" class="f">a</text><text x="66.132" y="1.67" class="f">fresh</text><text x="72.144" y="1.67" class="f">ephemeral</text></symbol><symbol id="8"><text y="1.67" class="f">DB</text></symbol><symbol id="9"><text y="1.67" class="f">[boot]</text><text x="7.014" y="1.67" class="f">server</text><text x="14.028" y="1.67" class="f">is</text><text x="17.034" y="1.67" class="f">up</text></symbol><symbol id="10"><text y="1.67" class="f">[boot]</text><text x="7.014" y="1.67" class="f">minted</text><text x="14.028" y="1.67" class="f">nothing</text><text x="22.044" y="1.67" class="f">--</text><text x="25.05" y="1.67" class="f">using</text><text x="31.062" y="1.67" class="f">the</text><text x="35.07" y="1.67" class="f">first-run</text><text x="45.09" y="1.67" class="f">bootstrap</text><text x="55.11" y="1.67" class="f">key</text></symbol><symbol id="11"><text y="1.67" class="f">[setup]</text><text x="8.016" y="1.67" class="f">creating</text><text x="17.034" y="1.67" class="f">card</text><text x="22.044" y="1.67" class="f">lease-race-demo-1784052358</text></symbol><symbol id="12"><text y="1.67" class="h">{</text><text x="1.002" y="1.67" class="i">&quot;id&quot;</text><text x="5.01" y="1.67" class="h">:</text><text x="6.012" y="1.67" class="j">&quot;lease-race-demo-1784052358&quot;</text><text x="34.068" y="1.67" class="h">,</text><text x="35.07" y="1.67" class="i">&quot;status&quot;</text><text x="43.086" y="1.67" class="h">:</text><text x="44.088" y="1.67" class="j">&quot;ready&quot;</text><text x="51.102" y="1.67" class="h">}</text></symbol><symbol id="13"><text y="1.67" class="f">[actor</text><text x="7.014" y="1.67" class="f">A:</text><text x="10.02" y="1.67" class="f">codex-agent]</text><text x="23.046" y="1.67" class="f">claiming</text><text x="32.064" y="1.67" class="f">with</text><text x="37.074" y="1.67" class="f">ttl_seconds=2</text></symbol><symbol id="14"><text y="1.67" class="h">{</text><text x="1.002" y="1.67" class="i">&quot;agent&quot;</text><text x="8.016" y="1.67" class="h">:</text><text x="9.018" y="1.67" class="j">&quot;codex-agent&quot;</text><text x="22.044" y="1.67" class="h">,</text><text x="23.046" y="1.67" class="i">&quot;card_id&quot;</text><text x="32.064" y="1.67" class="h">:</text><text x="33.066" y="1.67" class="j">&quot;lease-race-demo-1784052358&quot;</text><text x="61.122" y="1.67" class="h">,</text><text x="62.124" y="1.67" class="i">&quot;expires_at&quot;</text><text x="74.148" y="1.67" class="h">:</text><text x="75.15" y="1.67" class="f">1784052</text></symbol><symbol id="15"><text y="1.67" class="f">361</text><text x="3.006" y="1.67" class="h">,</text><text x="4.008" y="1.67" class="i">&quot;run_id&quot;</text><text x="12.024" y="1.67" class="h">:</text><text x="13.026" y="1.67" class="j">&quot;run-rCzK8LlB2C7Y&quot;</text><text x="31.062" y="1.67" class="h">}</text></symbol><symbol id="16"><text y="1.67" class="f">[actor</text><text x="7.014" y="1.67" class="f">A]</text><text x="10.02" y="1.67" class="f">run_id=run-rCzK8LlB2C7Y</text><text x="34.068" y="1.67" class="f">expires_at=1784052361</text></symbol><symbol id="17"><text y="1.67" class="f">[actor</text><text x="7.014" y="1.67" class="f">A]</text><text x="10.02" y="1.67" class="f">appending</text><text x="20.04" y="1.67" class="f">a</text><text x="22.044" y="1.67" class="f">work-log</text><text x="31.062" y="1.67" class="f">entry,</text><text x="38.076" y="1.67" class="f">then</text><text x="43.086" y="1.67" class="f">going</text><text x="49.098" y="1.67" class="f">dark</text></symbol><symbol id="18"><text y="1.67" class="h">{</text><text x="1.002" y="1.67" class="i">&quot;card_id&quot;</text><text x="10.02" y="1.67" class="h">:</text><text x="11.022" y="1.67" class="j">&quot;lease-race-demo-1784052358&quot;</text><text x="39.078" y="1.67" class="h">,</text><text x="40.08" y="1.67" class="i">&quot;agent&quot;</text><text x="47.094" y="1.67" class="h">:</text><text x="48.096" y="1.67" class="j">&quot;codex-agent&quot;</text><text x="61.122" y="1.67" class="h">}</text></symbol><symbol id="19"><text y="1.67" class="f">[actor</text><text x="7.014" y="1.67" class="f">A]</text><text x="10.02" y="1.67" class="f">***</text><text x="14.028" y="1.67" class="f">crash</text><text x="20.04" y="1.67" class="f">***</text><text x="24.048" y="1.67" class="f">(no</text><text x="28.056" y="1.67" class="f">heartbeat,</text><text x="39.078" y="1.67" class="f">no</text><text x="42.084" y="1.67" class="f">release</text><text x="50.1" y="1.67" class="f">--</text><text x="53.106" y="1.67" class="f">the</text><text x="57.114" y="1.67" class="f">lease</text><text x="63.126" y="1.67" class="f">is</text><text x="66.132" y="1.67" class="f">left</text><text x="71.142" y="1.67" class="f">to</text><text x="74.148" y="1.67" class="f">expire</text><text x="81.162" y="1.67" class="f">o</text></symbol><symbol id="20"><text y="1.67" class="f">n</text><text x="2.004" y="1.67" class="f">its</text><text x="6.012" y="1.67" class="f">own)</text></symbol><symbol id="21"><text y="1.67" class="f">[actor</text><text x="7.014" y="1.67" class="f">B:</text><text x="10.02" y="1.67" class="f">human-with-curl]</text><text x="27.054" y="1.67" class="f">polling</text><text x="35.07" y="1.67" class="f">list_ready</text><text x="46.092" y="1.67" class="f">until</text><text x="52.104" y="1.67" class="f">the</text><text x="56.112" y="1.67" class="f">card</text><text x="61.122" y="1.67" class="f">returns</text><text x="69.138" y="1.67" class="f">(TTL</text><text x="74.148" y="1.67" class="f">expiry,</text></symbol><symbol id="22"><text y="1.67" class="f">no</text><text x="3.006" y="1.67" class="f">human</text><text x="9.018" y="1.67" class="f">unsticking</text><text x="20.04" y="1.67" class="f">it)</text></symbol><symbol id="23"><text y="1.67" class="f">[actor</text><text x="7.014" y="1.67" class="f">B]</text><text x="10.02" y="1.67" class="f">card</text><text x="15.03" y="1.67" class="f">reclaimed</text><text x="25.05" y="1.67" class="f">via</text><text x="29.058" y="1.67" class="f">list_ready</text><text x="40.08" y="1.67" class="f">after</text><text x="46.092" y="1.67" class="f">2s</text><text x="49.098" y="1.67" class="f">(asserted</text><text x="59.118" y="1.67" class="f">&lt;</text><text x="61.122" y="1.67" class="f">10s)</text></symbol><symbol id="24"><text y="1.67" class="f">[actor</text><text x="7.014" y="1.67" class="f">B]</text><text x="10.02" y="1.67" class="f">claiming</text><text x="19.038" y="1.67" class="f">the</text><text x="23.046" y="1.67" class="f">abandoned</text><text x="33.066" y="1.67" class="f">card</text></symbol><symbol id="25"><text y="1.67" class="h">{</text><text x="1.002" y="1.67" class="i">&quot;agent&quot;</text><text x="8.016" y="1.67" class="h">:</text><text x="9.018" y="1.67" class="j">&quot;human-with-curl&quot;</text><text x="26.052" y="1.67" class="h">,</text><text x="27.054" y="1.67" class="i">&quot;card_id&quot;</text><text x="36.072" y="1.67" class="h">:</text><text x="37.074" y="1.67" class="j">&quot;lease-race-demo-1784052358&quot;</text><text x="65.13" y="1.67" class="h">,</text><text x="66.132" y="1.67" class="i">&quot;expires_at&quot;</text><text x="78.156" y="1.67" class="h">:</text><text x="79.158" y="1.67" class="f">178</text></symbol><symbol id="26"><text y="1.67" class="f">4055961</text><text x="7.014" y="1.67" class="h">,</text><text x="8.016" y="1.67" class="i">&quot;run_id&quot;</text><text x="16.032" y="1.67" class="h">:</text><text x="17.034" y="1.67" class="j">&quot;run-prn5lJVoaUPo&quot;</text><text x="35.07" y="1.67" class="h">}</text></symbol><symbol id="27"><text y="1.67" class="f">[actor</text><text x="7.014" y="1.67" class="f">B]</text><text x="10.02" y="1.67" class="f">run_id=run-prn5lJVoaUPo</text></symbol><symbol id="28"><text y="1.67" class="f">[actor</text><text x="7.014" y="1.67" class="f">B]</text><text x="10.02" y="1.67" class="f">completing</text><text x="21.042" y="1.67" class="f">the</text><text x="25.05" y="1.67" class="f">card</text><text x="30.06" y="1.67" class="f">with</text><text x="35.07" y="1.67" class="f">proof</text></symbol><symbol id="29"><text y="1.67" class="h">{</text><text x="1.002" y="1.67" class="i">&quot;id&quot;</text><text x="5.01" y="1.67" class="h">:</text><text x="6.012" y="1.67" class="j">&quot;lease-race-demo-1784052358&quot;</text><text x="34.068" y="1.67" class="h">,</text><text x="35.07" y="1.67" class="i">&quot;status&quot;</text><text x="43.086" y="1.67" class="h">:</text><text x="44.088" y="1.67" class="j">&quot;done&quot;</text><text x="50.1" y="1.67" class="h">}</text></symbol><symbol id="30"><text y="1.67" class="f">[readback]</text><text x="11.022" y="1.67" class="f">fetching</text><text x="20.04" y="1.67" class="f">card</text><text x="25.05" y="1.67" class="f">detail</text><text x="32.064" y="1.67" class="f">(detail=detailed)</text><text x="50.1" y="1.67" class="f">for</text><text x="54.108" y="1.67" class="f">the</text><text x="58.116" y="1.67" class="f">runs/work-log</text><text x="72.144" y="1.67" class="f">trail</text></symbol><symbol id="31"><text y="1.67" class="f">[readback]</text><text x="11.022" y="1.67" class="f">fetching</text><text x="20.04" y="1.67" class="f">the</text><text x="24.048" y="1.67" class="f">outbound</text><text x="33.066" y="1.67" class="f">event</text><text x="39.078" y="1.67" class="f">tail</text><text x="44.088" y="1.67" class="f">(this</text><text x="50.1" y="1.67" class="f">is</text><text x="53.106" y="1.67" class="f">where</text><text x="59.118" y="1.67" class="f">claim-expired/completed</text></symbol><symbol id="32"><text x="1.002" y="1.67" class="f">live</text><text x="6.012" y="1.67" class="f">--</text></symbol><symbol id="33"><text x="11.022" y="1.67" class="f">they</text><text x="16.032" y="1.67" class="f">are</text><text x="20.04" y="1.67" class="f">webhook-delivery</text><text x="37.074" y="1.67" class="f">events,</text><text x="45.09" y="1.67" class="f">not</text><text x="49.098" y="1.67" class="f">the</text><text x="53.106" y="1.67" class="f">card_events</text><text x="65.13" y="1.67" class="f">audit</text><text x="71.142" y="1.67" class="f">rows,</text><text x="77.154" y="1.67" class="f">so</text><text x="80.16" y="1.67" class="f">a</text></symbol><symbol id="34"><text y="1.67" class="f">card</text></symbol><symbol id="35"><text x="11.022" y="1.67" class="f">detail</text><text x="18.036" y="1.67" class="f">read</text><text x="23.046" y="1.67" class="f">alone</text><text x="29.058" y="1.67" class="f">does</text><text x="34.068" y="1.67" class="f">not</text><text x="38.076" y="1.67" class="f">show</text><text x="43.086" y="1.67" class="f">them;</text><text x="49.098" y="1.67" class="f">GET</text><text x="53.106" y="1.67" class="f">/api/v1/events/tail</text><text x="73.146" y="1.67" class="f">does)</text></symbol><symbol id="36"><text y="1.67" class="f">===</text><text x="4.008" y="1.67" class="f">Race</text><text x="9.018" y="1.67" class="f">transcript</text><text x="20.04" y="1.67" class="f">(from</text><text x="26.052" y="1.67" class="f">the</text><text x="30.06" y="1.67" class="f">audit</text><text x="36.072" y="1.67" class="f">trail,</text><text x="43.086" y="1.67" class="f">not</text><text x="47.094" y="1.67" class="f">narration)</text><text x="58.116" y="1.67" class="f">===</text></symbol><symbol id="37"><text y="1.67" class="f">at</text><text x="13.026" y="1.67" class="f">actor</text><text x="30.06" y="1.67" class="f">event</text></symbol><symbol id="38"><text y="1.67" class="f">1784052359</text><text x="13.026" y="1.67" class="f">codex-agent</text><text x="30.06" y="1.67" class="f">claim,</text><text x="37.074" y="1.67" class="f">run</text><text x="41.082" y="1.67" class="f">run-rCzK8LlB2C7Y</text></symbol><symbol id="39"><text y="1.67" class="f">1784052359</text><text x="13.026" y="1.67" class="f">codex-agent</text><text x="30.06" y="1.67" class="f">work-log-appended</text></symbol><symbol id="40"><text y="1.67" class="f">1784052361</text><text x="13.026" y="1.67" class="f">codex-agent</text><text x="30.06" y="1.67" class="f">claim-expired</text></symbol><symbol id="41"><text y="1.67" class="f">1784052361</text><text x="13.026" y="1.67" class="f">human-with-curl</text><text x="30.06" y="1.67" class="f">claim,</text><text x="37.074" y="1.67" class="f">run</text><text x="41.082" y="1.67" class="f">run-prn5lJVoaUPo</text></symbol><symbol id="42"><text y="1.67" class="f">1784052361</text><text x="13.026" y="1.67" class="f">bootstrap</text><text x="30.06" y="1.67" class="f">completed</text></symbol><symbol id="a"><path fill="transparent" d="M0 0h82v25H0z"/></symbol></defs><path class="a" d="M0 0h82v52.104H0z"/><g style="animation-duration:3.4239910000000005s;animation-iteration-count:infinite;animation-name:l;animation-timing-function:steps(1,end)"><svg width="3116"><svg><use xlink:href="#a"/></svg><svg x="82"><use xlink:href="#a"/><use xlink:href="#1"/><use xlink:href="#2" y="2.171"/><use xlink:href="#3" y="4.342"/><use xlink:href="#4" y="6.513"/><use xlink:href="#5" y="8.684"/></svg><svg x="164"><use xlink:href="#a"/><use xlink:href="#1"/><use xlink:href="#2" y="2.171"/><use xlink:href="#3" y="4.342"/><use xlink:href="#4" y="6.513"/><use xlink:href="#5" y="8.684"/></svg><svg x="246"><use xlink:href="#a"/><use xlink:href="#1"/><use xlink:href="#2" y="2.171"/><use xlink:href="#3" y="4.342"/><use xlink:href="#4" y="6.513"/><use xlink:href="#5" y="8.684"/></svg><svg x="328"><use xlink:href="#a"/><use xlink:href="#1"/><use xlink:href="#2" y="2.171"/><use xlink:href="#3" y="4.342"/><use xlink:href="#4" y="6.513"/><use xlink:href="#5" y="8.684"/></svg><svg x="410"><use xlink:href="#a"/><use xlink:href="#1"/><use xlink:href="#2" y="2.171"/><use xlink:href="#3" y="4.342"/><use xlink:href="#4" y="6.513"/><use xlink:href="#5" y="8.684"/></svg><svg x="492"><use xlink:href="#a"/><use xlink:href="#1"/><use xlink:href="#2" y="2.171"/><use xlink:href="#3" y="4.342"/><use xlink:href="#4" y="6.513"/><use xlink:href="#5" y="8.684"/><use xlink:href="#6" y="10.855"/></svg><svg x="574"><use xlink:href="#a"/><use xlink:href="#1"/><use xlink:href="#2" y="2.171"/><use xlink:href="#3" y="4.342"/><use xlink:href="#4" y="6.513"/><use xlink:href="#5" y="8.684"/><use xlink:href="#6" y="10.855"/></svg><svg x="656"><use xlink:href="#a"/><use xlink:href="#1"/><use xlink:href="#2" y="2.171"/><use xlink:href="#3" y="4.342"/><use xlink:href="#4" y="6.513"/><use xlink:href="#5" y="8.684"/><use xlink:href="#6" y="10.855"/></svg><svg x="738"><use xlink:href="#a"/><use xlink:href="#1"/><use xlink:href="#2" y="2.171"/><use xlink:href="#3" y="4.342"/><use xlink:href="#4" y="6.513"/><use xlink:href="#5" y="8.684"/><use xlink:href="#6" y="10.855"/><use xlink:href="#7" y="13.026"/><use xlink:href="#8" y="15.197"/></svg><svg x="820"><use xlink:href="#a"/><use xlink:href="#1"/><use xlink:href="#2" y="2.171"/><use xlink:href="#3" y="4.342"/><use xlink:href="#4" y="6.513"/><use xlink:href="#5" y="8.684"/><use xlink:href="#6" y="10.855"/><use xlink:href="#7" y="13.026"/><use xlink:href="#8" y="15.197"/><use xlink:href="#9" y="17.368"/></svg><svg x="902"><use xlink:href="#a"/><use xlink:href="#1"/><use xlink:href="#2" y="2.171"/><use xlink:href="#3" y="4.342"/><use xlink:href="#4" y="6.513"/><use xlink:href="#5" y="8.684"/><use xlink:href="#6" y="10.855"/><use xlink:href="#7" y="13.026"/><use xlink:href="#8" y="15.197"/><use xlink:href="#9" y="17.368"/><use xlink:href="#10" y="19.539"/><use xlink:href="#4" y="21.71"/></svg><svg x="984"><use xlink:href="#a"/><use xlink:href="#1"/><use xlink:href="#2" y="2.171"/><use xlink:href="#3" y="4.342"/><use xlink:href="#4" y="6.513"/><use xlink:href="#5" y="8.684"/><use xlink:href="#6" y="10.855"/><use xlink:href="#7" y="13.026"/><use xlink:href="#8" y="15.197"/><use xlink:href="#9" y="17.368"/><use xlink:href="#10" y="19.539"/><use xlink:href="#4" y="21.71"/><use xlink:href="#11" y="23.881"/></svg><svg x="1066"><use xlink:href="#a"/><use xlink:href="#1"/><use xlink:href="#2" y="2.171"/><use xlink:href="#3" y="4.342"/><use xlink:href="#4" y="6.513"/><use xlink:href="#5" y="8.684"/><use xlink:href="#6" y="10.855"/><use xlink:href="#7" y="13.026"/><use xlink:href="#8" y="15.197"/><use xlink:href="#9" y="17.368"/><use xlink:href="#10" y="19.539"/><use xlink:href="#4" y="21.71"/><use xlink:href="#11" y="23.881"/><use xlink:href="#12" y="26.052"/></svg><svg x="1148"><use xlink:href="#a"/><use xlink:href="#1"/><use xlink:href="#2" y="2.171"/><use xlink:href="#3" y="4.342"/><use xlink:href="#4" y="6.513"/><use xlink:href="#5" y="8.684"/><use xlink:href="#6" y="10.855"/><use xlink:href="#7" y="13.026"/><use xlink:href="#8" y="15.197"/><use xlink:href="#9" y="17.368"/><use xlink:href="#10" y="19.539"/><use xlink:href="#4" y="21.71"/><use xlink:href="#11" y="23.881"/><use xlink:href="#12" y="26.052"/><use xlink:href="#4" y="28.223"/></svg><svg x="1230"><use xlink:href="#a"/><use xlink:href="#1"/><use xlink:href="#2" y="2.171"/><use xlink:href="#3" y="4.342"/><use xlink:href="#4" y="6.513"/><use xlink:href="#5" y="8.684"/><use xlink:href="#6" y="10.855"/><use xlink:href="#7" y="13.026"/><use xlink:href="#8" y="15.197"/><use xlink:href="#9" y="17.368"/><use xlink:href="#10" y="19.539"/><use xlink:href="#4" y="21.71"/><use xlink:href="#11" y="23.881"/><use xlink:href="#12" y="26.052"/><use xlink:href="#4" y="28.223"/><use xlink:href="#13" y="30.394"/></svg><svg x="1312"><use xlink:href="#a"/><use xlink:href="#1"/><use xlink:href="#2" y="2.171"/><use xlink:href="#3" y="4.342"/><use xlink:href="#4" y="6.513"/><use xlink:href="#5" y="8.684"/><use xlink:href="#6" y="10.855"/><use xlink:href="#7" y="13.026"/><use xlink:href="#8" y="15.197"/><use xlink:href="#9" y="17.368"/><use xlink:href="#10" y="19.539"/><use xlink:href="#4" y="21.71"/><use xlink:href="#11" y="23.881"/><use xlink:href="#12" y="26.052"/><use xlink:href="#4" y="28.223"/><use xlink:href="#13" y="30.394"/><use xlink:href="#14" y="32.565"/><use xlink:href="#15" y="34.736"/></svg><svg x="1394"><use xlink:href="#a"/><use xlink:href="#1"/><use xlink:href="#2" y="2.171"/><use xlink:href="#3" y="4.342"/><use xlink:href="#4" y="6.513"/><use xlink:href="#5" y="8.684"/><use xlink:href="#6" y="10.855"/><use xlink:href="#7" y="13.026"/><use xlink:href="#8" y="15.197"/><use xlink:href="#9" y="17.368"/><use xlink:href="#10" y="19.539"/><use xlink:href="#4" y="21.71"/><use xlink:href="#11" y="23.881"/><use xlink:href="#12" y="26.052"/><use xlink:href="#4" y="28.223"/><use xlink:href="#13" y="30.394"/><use xlink:href="#14" y="32.565"/><use xlink:href="#15" y="34.736"/><use xlink:href="#16" y="36.907"/><use xlink:href="#17" y="39.078"/></svg><svg x="1476"><use xlink:href="#a"/><use xlink:href="#1"/><use xlink:href="#2" y="2.171"/><use xlink:href="#3" y="4.342"/><use xlink:href="#4" y="6.513"/><use xlink:href="#5" y="8.684"/><use xlink:href="#6" y="10.855"/><use xlink:href="#7" y="13.026"/><use xlink:href="#8" y="15.197"/><use xlink:href="#9" y="17.368"/><use xlink:href="#10" y="19.539"/><use xlink:href="#4" y="21.71"/><use xlink:href="#11" y="23.881"/><use xlink:href="#12" y="26.052"/><use xlink:href="#4" y="28.223"/><use xlink:href="#13" y="30.394"/><use xlink:href="#14" y="32.565"/><use xlink:href="#15" y="34.736"/><use xlink:href="#16" y="36.907"/><use xlink:href="#17" y="39.078"/><use xlink:href="#18" y="41.249"/></svg><svg x="1558"><use xlink:href="#a"/><use xlink:href="#1"/><use xlink:href="#2" y="2.171"/><use xlink:href="#3" y="4.342"/><use xlink:href="#4" y="6.513"/><use xlink:href="#5" y="8.684"/><use xlink:href="#6" y="10.855"/><use xlink:href="#7" y="13.026"/><use xlink:href="#8" y="15.197"/><use xlink:href="#9" y="17.368"/><use xlink:href="#10" y="19.539"/><use xlink:href="#4" y="21.71"/><use xlink:href="#11" y="23.881"/><use xlink:href="#12" y="26.052"/><use xlink:href="#4" y="28.223"/><use xlink:href="#13" y="30.394"/><use xlink:href="#14" y="32.565"/><use xlink:href="#15" y="34.736"/><use xlink:href="#16" y="36.907"/><use xlink:href="#17" y="39.078"/><use xlink:href="#18" y="41.249"/><use xlink:href="#19" y="43.42"/><use xlink:href="#20" y="45.591"/><use xlink:href="#4" y="47.762"/></svg><svg x="1640"><use xlink:href="#a"/><use xlink:href="#2"/><use xlink:href="#3" y="2.171"/><use xlink:href="#4" y="4.342"/><use xlink:href="#5" y="6.513"/><use xlink:href="#6" y="8.684"/><use xlink:href="#7" y="10.855"/><use xlink:href="#8" y="13.026"/><use xlink:href="#9" y="15.197"/><use xlink:href="#10" y="17.368"/><use xlink:href="#4" y="19.539"/><use xlink:href="#11" y="21.71"/><use xlink:href="#12" y="23.881"/><use xlink:href="#4" y="26.052"/><use xlink:href="#13" y="28.223"/><use xlink:href="#14" y="30.394"/><use xlink:href="#15" y="32.565"/><use xlink:href="#16" y="34.736"/><use xlink:href="#17" y="36.907"/><use xlink:href="#18" y="39.078"/><use xlink:href="#19" y="41.249"/><use xlink:href="#20" y="43.42"/><use xlink:href="#4" y="45.591"/><use xlink:href="#21" y="47.762"/><use xlink:href="#22" y="49.933"/></svg><svg x="1722"><use xlink:href="#a"/><use xlink:href="#5"/><use xlink:href="#6" y="2.171"/><use xlink:href="#7" y="4.342"/><use xlink:href="#8" y="6.513"/><use xlink:href="#9" y="8.684"/><use xlink:href="#10" y="10.855"/><use xlink:href="#4" y="13.026"/><use xlink:href="#11" y="15.197"/><use xlink:href="#12" y="17.368"/><use xlink:href="#4" y="19.539"/><use xlink:href="#13" y="21.71"/><use xlink:href="#14" y="23.881"/><use xlink:href="#15" y="26.052"/><use xlink:href="#16" y="28.223"/><use xlink:href="#17" y="30.394"/><use xlink:href="#18" y="32.565"/><use xlink:href="#19" y="34.736"/><use xlink:href="#20" y="36.907"/><use xlink:href="#4" y="39.078"/><use xlink:href="#21" y="41.249"/><use xlink:href="#22" y="43.42"/><use xlink:href="#23" y="45.591"/><use xlink:href="#4" y="47.762"/><use xlink:href="#24" y="49.933"/></svg><svg x="1804"><use xlink:href="#a"/><use xlink:href="#7"/><use xlink:href="#8" y="2.171"/><use xlink:href="#9" y="4.342"/><use xlink:href="#10" y="6.513"/><use xlink:href="#4" y="8.684"/><use xlink:href="#11" y="10.855"/><use xlink:href="#12" y="13.026"/><use xlink:href="#4" y="15.197"/><use xlink:href="#13" y="17.368"/><use xlink:href="#14" y="19.539"/><use xlink:href="#15" y="21.71"/><use xlink:href="#16" y="23.881"/><use xlink:href="#17" y="26.052"/><use xlink:href="#18" y="28.223"/><use xlink:href="#19" y="30.394"/><use xlink:href="#20" y="32.565"/><use xlink:href="#4" y="34.736"/><use xlink:href="#21" y="36.907"/><use xlink:href="#22" y="39.078"/><use xlink:href="#23" y="41.249"/><use xlink:href="#4" y="43.42"/><use xlink:href="#24" y="45.591"/><use xlink:href="#25" y="47.762"/><use xlink:href="#26" y="49.933"/></svg><svg x="1886"><use xlink:href="#a"/><use xlink:href="#9"/><use xlink:href="#10" y="2.171"/><use xlink:href="#4" y="4.342"/><use xlink:href="#11" y="6.513"/><use xlink:href="#12" y="8.684"/><use xlink:href="#4" y="10.855"/><use xlink:href="#13" y="13.026"/><use xlink:href="#14" y="15.197"/><use xlink:href="#15" y="17.368"/><use xlink:href="#16" y="19.539"/><use xlink:href="#17" y="21.71"/><use xlink:href="#18" y="23.881"/><use xlink:href="#19" y="26.052"/><use xlink:href="#20" y="28.223"/><use xlink:href="#4" y="30.394"/><use xlink:href="#21" y="32.565"/><use xlink:href="#22" y="34.736"/><use xlink:href="#23" y="36.907"/><use xlink:href="#4" y="39.078"/><use xlink:href="#24" y="41.249"/><use xlink:href="#25" y="43.42"/><use xlink:href="#26" y="45.591"/><use xlink:href="#27" y="47.762"/><use xlink:href="#28" y="49.933"/></svg><svg x="1968"><use xlink:href="#a"/><use xlink:href="#10"/><use xlink:href="#4" y="2.171"/><use xlink:href="#11" y="4.342"/><use xlink:href="#12" y="6.513"/><use xlink:href="#4" y="8.684"/><use xlink:href="#13" y="10.855"/><use xlink:href="#14" y="13.026"/><use xlink:href="#15" y="15.197"/><use xlink:href="#16" y="17.368"/><use xlink:href="#17" y="19.539"/><use xlink:href="#18" y="21.71"/><use xlink:href="#19" y="23.881"/><use xlink:href="#20" y="26.052"/><use xlink:href="#4" y="28.223"/><use xlink:href="#21" y="30.394"/><use xlink:href="#22" y="32.565"/><use xlink:href="#23" y="34.736"/><use xlink:href="#4" y="36.907"/><use xlink:href="#24" y="39.078"/><use xlink:href="#25" y="41.249"/><use xlink:href="#26" y="43.42"/><use xlink:href="#27" y="45.591"/><use xlink:href="#28" y="47.762"/><use xlink:href="#29" y="49.933"/></svg><svg x="2050"><use xlink:href="#a"/><use xlink:href="#4"/><use xlink:href="#11" y="2.171"/><use xlink:href="#12" y="4.342"/><use xlink:href="#4" y="6.513"/><use xlink:href="#13" y="8.684"/><use xlink:href="#14" y="10.855"/><use xlink:href="#15" y="13.026"/><use xlink:href="#16" y="15.197"/><use xlink:href="#17" y="17.368"/><use xlink:href="#18" y="19.539"/><use xlink:href="#19" y="21.71"/><use xlink:href="#20" y="23.881"/><use xlink:href="#4" y="26.052"/><use xlink:href="#21" y="28.223"/><use xlink:href="#22" y="30.394"/><use xlink:href="#23" y="32.565"/><use xlink:href="#4" y="34.736"/><use xlink:href="#24" y="36.907"/><use xlink:href="#25" y="39.078"/><use xlink:href="#26" y="41.249"/><use xlink:href="#27" y="43.42"/><use xlink:href="#28" y="45.591"/><use xlink:href="#29" y="47.762"/><use xlink:href="#4" y="49.933"/></svg><svg x="2132"><use xlink:href="#a"/><use xlink:href="#11"/><use xlink:href="#12" y="2.171"/><use xlink:href="#4" y="4.342"/><use xlink:href="#13" y="6.513"/><use xlink:href="#14" y="8.684"/><use xlink:href="#15" y="10.855"/><use xlink:href="#16" y="13.026"/><use xlink:href="#17" y="15.197"/><use xlink:href="#18" y="17.368"/><use xlink:href="#19" y="19.539"/><use xlink:href="#20" y="21.71"/><use xlink:href="#4" y="23.881"/><use xlink:href="#21" y="26.052"/><use xlink:href="#22" y="28.223"/><use xlink:href="#23" y="30.394"/><use xlink:href="#4" y="32.565"/><use xlink:href="#24" y="34.736"/><use xlink:href="#25" y="36.907"/><use xlink:href="#26" y="39.078"/><use xlink:href="#27" y="41.249"/><use xlink:href="#28" y="43.42"/><use xlink:href="#29" y="45.591"/><use xlink:href="#4" y="47.762"/><use xlink:href="#30" y="49.933"/></svg><svg x="2214"><use xlink:href="#a"/><use xlink:href="#14"/><use xlink:href="#15" y="2.171"/><use xlink:href="#16" y="4.342"/><use xlink:href="#17" y="6.513"/><use xlink:href="#18" y="8.684"/><use xlink:href="#19" y="10.855"/><use xlink:href="#20" y="13.026"/><use xlink:href="#4" y="15.197"/><use xlink:href="#21" y="17.368"/><use xlink:href="#22" y="19.539"/><use xlink:href="#23" y="21.71"/><use xlink:href="#4" y="23.881"/><use xlink:href="#24" y="26.052"/><use xlink:href="#25" y="28.223"/><use xlink:href="#26" y="30.394"/><use xlink:href="#27" y="32.565"/><use xlink:href="#28" y="34.736"/><use xlink:href="#29" y="36.907"/><use xlink:href="#4" y="39.078"/><use xlink:href="#30" y="41.249"/><use xlink:href="#31" y="43.42"/><use xlink:href="#32" y="45.591"/><use xlink:href="#33" y="47.762"/><use xlink:href="#34" y="49.933"/></svg><svg x="2296"><use xlink:href="#a"/><use xlink:href="#15"/><use xlink:href="#16" y="2.171"/><use xlink:href="#17" y="4.342"/><use xlink:href="#18" y="6.513"/><use xlink:href="#19" y="8.684"/><use xlink:href="#20" y="10.855"/><use xlink:href="#4" y="13.026"/><use xlink:href="#21" y="15.197"/><use xlink:href="#22" y="17.368"/><use xlink:href="#23" y="19.539"/><use xlink:href="#4" y="21.71"/><use xlink:href="#24" y="23.881"/><use xlink:href="#25" y="26.052"/><use xlink:href="#26" y="28.223"/><use xlink:href="#27" y="30.394"/><use xlink:href="#28" y="32.565"/><use xlink:href="#29" y="34.736"/><use xlink:href="#4" y="36.907"/><use xlink:href="#30" y="39.078"/><use xlink:href="#31" y="41.249"/><use xlink:href="#32" y="43.42"/><use xlink:href="#33" y="45.591"/><use xlink:href="#34" y="47.762"/><use xlink:href="#35" y="49.933"/></svg><svg x="2378"><use xlink:href="#a"/><use xlink:href="#17"/><use xlink:href="#18" y="2.171"/><use xlink:href="#19" y="4.342"/><use xlink:href="#20" y="6.513"/><use xlink:href="#4" y="8.684"/><use xlink:href="#21" y="10.855"/><use xlink:href="#22" y="13.026"/><use xlink:href="#23" y="15.197"/><use xlink:href="#4" y="17.368"/><use xlink:href="#24" y="19.539"/><use xlink:href="#25" y="21.71"/><use xlink:href="#26" y="23.881"/><use xlink:href="#27" y="26.052"/><use xlink:href="#28" y="28.223"/><use xlink:href="#29" y="30.394"/><use xlink:href="#4" y="32.565"/><use xlink:href="#30" y="34.736"/><use xlink:href="#31" y="36.907"/><use xlink:href="#32" y="39.078"/><use xlink:href="#33" y="41.249"/><use xlink:href="#34" y="43.42"/><use xlink:href="#35" y="45.591"/><use xlink:href="#4" y="47.762"/><use xlink:href="#36" y="49.933"/></svg><svg x="2460"><use xlink:href="#a"/><use xlink:href="#18"/><use xlink:href="#19" y="2.171"/><use xlink:href="#20" y="4.342"/><use xlink:href="#4" y="6.513"/><use xlink:href="#21" y="8.684"/><use xlink:href="#22" y="10.855"/><use xlink:href="#23" y="13.026"/><use xlink:href="#4" y="15.197"/><use xlink:href="#24" y="17.368"/><use xlink:href="#25" y="19.539"/><use xlink:href="#26" y="21.71"/><use xlink:href="#27" y="23.881"/><use xlink:href="#28" y="26.052"/><use xlink:href="#29" y="28.223"/><use xlink:href="#4" y="30.394"/><use xlink:href="#30" y="32.565"/><use xlink:href="#31" y="34.736"/><use xlink:href="#32" y="36.907"/><use xlink:href="#33" y="39.078"/><use xlink:href="#34" y="41.249"/><use xlink:href="#35" y="43.42"/><use xlink:href="#4" y="45.591"/><use xlink:href="#36" y="47.762"/><use xlink:href="#37" y="49.933"/></svg><svg x="2542"><use xlink:href="#a"/><use xlink:href="#19"/><use xlink:href="#20" y="2.171"/><use xlink:href="#4" y="4.342"/><use xlink:href="#21" y="6.513"/><use xlink:href="#22" y="8.684"/><use xlink:href="#23" y="10.855"/><use xlink:href="#4" y="13.026"/><use xlink:href="#24" y="15.197"/><use xlink:href="#25" y="17.368"/><use xlink:href="#26" y="19.539"/><use xlink:href="#27" y="21.71"/><use xlink:href="#28" y="23.881"/><use xlink:href="#29" y="26.052"/><use xlink:href="#4" y="28.223"/><use xlink:href="#30" y="30.394"/><use xlink:href="#31" y="32.565"/><use xlink:href="#32" y="34.736"/><use xlink:href="#33" y="36.907"/><use xlink:href="#34" y="39.078"/><use xlink:href="#35" y="41.249"/><use xlink:href="#4" y="43.42"/><use xlink:href="#36" y="45.591"/><use xlink:href="#37" y="47.762"/><use xlink:href="#38" y="49.933"/></svg><svg x="2624"><use xlink:href="#a"/><use xlink:href="#20"/><use xlink:href="#4" y="2.171"/><use xlink:href="#21" y="4.342"/><use xlink:href="#22" y="6.513"/><use xlink:href="#23" y="8.684"/><use xlink:href="#4" y="10.855"/><use xlink:href="#24" y="13.026"/><use xlink:href="#25" y="15.197"/><use xlink:href="#26" y="17.368"/><use xlink:href="#27" y="19.539"/><use xlink:href="#28" y="21.71"/><use xlink:href="#29" y="23.881"/><use xlink:href="#4" y="26.052"/><use xlink:href="#30" y="28.223"/><use xlink:href="#31" y="30.394"/><use xlink:href="#32" y="32.565"/><use xlink:href="#33" y="34.736"/><use xlink:href="#34" y="36.907"/><use xlink:href="#35" y="39.078"/><use xlink:href="#4" y="41.249"/><use xlink:href="#36" y="43.42"/><use xlink:href="#37" y="45.591"/><use xlink:href="#38" y="47.762"/><use xlink:href="#39" y="49.933"/></svg><svg x="2706"><use xlink:href="#a"/><use xlink:href="#4"/><use xlink:href="#21" y="2.171"/><use xlink:href="#22" y="4.342"/><use xlink:href="#23" y="6.513"/><use xlink:href="#4" y="8.684"/><use xlink:href="#24" y="10.855"/><use xlink:href="#25" y="13.026"/><use xlink:href="#26" y="15.197"/><use xlink:href="#27" y="17.368"/><use xlink:href="#28" y="19.539"/><use xlink:href="#29" y="21.71"/><use xlink:href="#4" y="23.881"/><use xlink:href="#30" y="26.052"/><use xlink:href="#31" y="28.223"/><use xlink:href="#32" y="30.394"/><use xlink:href="#33" y="32.565"/><use xlink:href="#34" y="34.736"/><use xlink:href="#35" y="36.907"/><use xlink:href="#4" y="39.078"/><use xlink:href="#36" y="41.249"/><use xlink:href="#37" y="43.42"/><use xlink:href="#38" y="45.591"/><use xlink:href="#39" y="47.762"/><use xlink:href="#40" y="49.933"/></svg><svg x="2788"><use xlink:href="#a"/><use xlink:href="#21"/><use xlink:href="#22" y="2.171"/><use xlink:href="#23" y="4.342"/><use xlink:href="#4" y="6.513"/><use xlink:href="#24" y="8.684"/><use xlink:href="#25" y="10.855"/><use xlink:href="#26" y="13.026"/><use xlink:href="#27" y="15.197"/><use xlink:href="#28" y="17.368"/><use xlink:href="#29" y="19.539"/><use xlink:href="#4" y="21.71"/><use xlink:href="#30" y="23.881"/><use xlink:href="#31" y="26.052"/><use xlink:href="#32" y="28.223"/><use xlink:href="#33" y="30.394"/><use xlink:href="#34" y="32.565"/><use xlink:href="#35" y="34.736"/><use xlink:href="#4" y="36.907"/><use xlink:href="#36" y="39.078"/><use xlink:href="#37" y="41.249"/><use xlink:href="#38" y="43.42"/><use xlink:href="#39" y="45.591"/><use xlink:href="#40" y="47.762"/><use xlink:href="#41" y="49.933"/></svg><svg x="2870"><use xlink:href="#a"/><use xlink:href="#22"/><use xlink:href="#23" y="2.171"/><use xlink:href="#4" y="4.342"/><use xlink:href="#24" y="6.513"/><use xlink:href="#25" y="8.684"/><use xlink:href="#26" y="10.855"/><use xlink:href="#27" y="13.026"/><use xlink:href="#28" y="15.197"/><use xlink:href="#29" y="17.368"/><use xlink:href="#4" y="19.539"/><use xlink:href="#30" y="21.71"/><use xlink:href="#31" y="23.881"/><use xlink:href="#32" y="26.052"/><use xlink:href="#33" y="28.223"/><use xlink:href="#34" y="30.394"/><use xlink:href="#35" y="32.565"/><use xlink:href="#4" y="34.736"/><use xlink:href="#36" y="36.907"/><use xlink:href="#37" y="39.078"/><use xlink:href="#38" y="41.249"/><use xlink:href="#39" y="43.42"/><use xlink:href="#40" y="45.591"/><use xlink:href="#41" y="47.762"/><use xlink:href="#42" y="49.933"/></svg><svg x="2952"><use xlink:href="#a"/><use xlink:href="#23"/><use xlink:href="#4" y="2.171"/><use xlink:href="#24" y="4.342"/><use xlink:href="#25" y="6.513"/><use xlink:href="#26" y="8.684"/><use xlink:href="#27" y="10.855"/><use xlink:href="#28" y="13.026"/><use xlink:href="#29" y="15.197"/><use xlink:href="#4" y="17.368"/><use xlink:href="#30" y="19.539"/><use xlink:href="#31" y="21.71"/><use xlink:href="#32" y="23.881"/><use xlink:href="#33" y="26.052"/><use xlink:href="#34" y="28.223"/><use xlink:href="#35" y="30.394"/><use xlink:href="#4" y="32.565"/><use xlink:href="#36" y="34.736"/><use xlink:href="#37" y="36.907"/><use xlink:href="#38" y="39.078"/><use xlink:href="#39" y="41.249"/><use xlink:href="#40" y="43.42"/><use xlink:href="#41" y="45.591"/><use xlink:href="#42" y="47.762"/><use xlink:href="#4" y="49.933"/></svg><svg x="3034"><use xlink:href="#a"/><use xlink:href="#27"/><use xlink:href="#28" y="2.171"/><use xlink:href="#29" y="4.342"/><use xlink:href="#4" y="6.513"/><use xlink:href="#30" y="8.684"/><use xlink:href="#31" y="10.855"/><use xlink:href="#32" y="13.026"/><use xlink:href="#33" y="15.197"/><use xlink:href="#34" y="17.368"/><use xlink:href="#35" y="19.539"/><use xlink:href="#4" y="21.71"/><use xlink:href="#36" y="23.881"/><use xlink:href="#37" y="26.052"/><use xlink:href="#38" y="28.223"/><use xlink:href="#39" y="30.394"/><use xlink:href="#40" y="32.565"/><use xlink:href="#41" y="34.736"/><use xlink:href="#42" y="36.907"/><use xlink:href="#4" y="39.078"/><text y="42.919" class="f">RESULT:</text><text x="8.016" y="42.919" class="f">PASS</text><text x="13.026" y="42.919" class="f">--</text><text x="16.032" y="42.919" class="f">codex-agent</text><text x="28.056" y="42.919" class="f">crashed,</text><text x="37.074" y="42.919" class="f">its</text><text x="41.082" y="42.919" class="f">lease</text><text x="47.094" y="42.919" class="f">expired</text><text x="55.11" y="42.919" class="f">after</text><text x="61.122" y="42.919" class="f">2s,</text><text x="65.13" y="42.919" class="f">human-with-curl</text><text x="81.162" y="42.919" class="f">r</text><text y="45.09" class="f">eclaimed</text><text x="9.018" y="45.09" class="f">the</text><text x="13.026" y="45.09" class="f">card</text><text x="18.036" y="45.09" class="f">via</text><text x="22.044" y="45.09" class="f">list_ready</text><text x="33.066" y="45.09" class="f">in</text><text x="36.072" y="45.09" class="f">2s</text><text x="39.078" y="45.09" class="f">with</text><text x="44.088" y="45.09" class="f">no</text><text x="47.094" y="45.09" class="f">human</text><text x="53.106" y="45.09" class="f">editing</text><text x="61.122" y="45.09" class="f">any</text><text x="65.13" y="45.09" class="f">file,</text><text x="71.142" y="45.09" class="f">and</text><text x="75.15" y="45.09" class="f">the</text><text x="79.158" y="45.09" class="f">ful</text><text y="47.261" class="f">l</text><text x="2.004" y="47.261" class="f">claim</text><text x="8.016" y="47.261" class="f">A</text><text x="10.02" y="47.261" class="f">-&gt;</text><text x="13.026" y="47.261" class="f">claim-expired</text><text x="27.054" y="47.261" class="f">-&gt;</text><text x="30.06" y="47.261" class="f">claim</text><text x="36.072" y="47.261" class="f">B</text><text x="38.076" y="47.261" class="f">-&gt;</text><text x="41.082" y="47.261" class="f">completed</text><text x="51.102" y="47.261" class="f">trail</text><text x="57.114" y="47.261" class="f">is</text><text x="60.12" y="47.261" class="f">recorded</text><text x="69.138" y="47.261" class="f">against</text><text x="77.154" y="47.261" class="f">the</text><text x="81.162" y="47.261" class="f">c</text><text y="49.432" class="f">ard</text><text x="4.008" y="49.432" class="f">(runs</text><text x="10.02" y="49.432" class="f">table</text><text x="16.032" y="49.432" class="f">for</text><text x="20.04" y="49.432" class="f">both</text><text x="25.05" y="49.432" class="f">claims,</text><text x="33.066" y="49.432" class="f">outbound</text><text x="42.084" y="49.432" class="f">event</text><text x="48.096" y="49.432" class="f">tail</text><text x="53.106" y="49.432" class="f">for</text><text x="57.114" y="49.432" class="f">claim-expired</text><text x="71.142" y="49.432" class="f">and</text><text x="75.15" y="49.432" class="f">complet</text><text y="51.603" class="f">ed).</text></svg></svg></g></g></svg></svg>