<svg xmlns="http://www.w3.org/2000/svg" xmlns:xlink="http://www.w3.org/1999/xlink" width="860" height="581.04"><rect width="860" height="581.04" rx="5" ry="5" class="a"/><svg y="0%" x="0%"><circle cx="20" cy="20" r="6" fill="#ff5f58"/><circle cx="40" cy="20" r="6" fill="#ffbd2e"/><circle cx="60" cy="20" r="6" fill="#18c132"/></svg><svg height="521.04" viewBox="0 0 82 52.104" width="820" x="15" xmlns="http://www.w3.org/2000/svg" xmlns:xlink="http://www.w3.org/1999/xlink" y="50"><style>@keyframes k{0%{transform:translateX(0)}.9%{transform:translateX(-82px)}63.2%{transform:translateX(-164px)}73.8%{transform:translateX(-246px)}73.9%{transform:translateX(-328px)}74.1%{transform:translateX(-492px)}76.9%{transform:translateX(-656px)}77.1%{transform:translateX(-738px)}77.2%{transform:translateX(-820px)}77.4%{transform:translateX(-902px)}77.5%{transform:translateX(-1066px)}98.7%{transform:translateX(-1148px)}98.9%{transform:translateX(-1230px)}99%{transform:translateX(-1394px)}99.1%{transform:translateX(-1640px)}99.3%{transform:translateX(-1804px)}99.7%{transform:translateX(-1886px)}99.8%{transform:translateX(-2132px)}99.9%{transform:translateX(-2296px)}to{transform:translateX(-2542px)}}.a{fill:#282d35}.f,.g{fill:#b9c0cb}.f{white-space:pre}.g{font-weight:700}.g,.h,.i{white-space:pre}.h{fill:#71bef2;font-weight:700}.i{fill:#a8cc8c}</style><g font-family="Monaco,Consolas,Menlo,'Bitstream Vera Sans Mono','Powerline Symbols',monospace" font-size="1.67"><defs><symbol id="1"><text y="1.67" class="f">===</text><text x="4.008" y="1.67" class="f">Powder</text><text x="11.022" y="1.67" class="f">lease-race</text><text x="22.044" y="1.67" class="f">demo</text><text x="27.054" y="1.67" class="f">===</text></symbol><symbol id="2"><text y="1.67" class="f">card:</text><text x="6.012" y="1.67" class="f">lease-race-demo-1784055477</text></symbol><symbol id="3"><text y="1.67" class="f">claim</text><text x="6.012" y="1.67" class="f">TTL:</text><text x="11.022" y="1.67" class="f">2s</text><text x="14.028" y="1.67" class="f">|</text><text x="16.032" y="1.67" class="f">poll</text><text x="21.042" y="1.67" class="f">timeout:</text><text x="30.06" y="1.67" class="f">10s</text></symbol><symbol id="4"><text y="1.67" class="f">----------------------------------------------------------------------</text></symbol><symbol id="5"><text y="1.67" class="f">[boot]</text><text x="7.014" y="1.67" class="f">building</text><text x="16.032" y="1.67" class="f">powder-server</text><text x="30.06" y="1.67" class="f">+</text><text x="32.064" y="1.67" class="f">powder</text><text x="39.078" y="1.67" class="f">CLI</text><text x="43.086" y="1.67" class="f">(release)</text></symbol><symbol id="6"><text y="1.67" class="f">[boot]</text><text x="7.014" y="1.67" class="f">starting</text><text x="16.032" y="1.67" class="f">powder-server</text><text x="30.06" y="1.67" class="f">on</text><text x="33.066" y="1.67" class="f">http://127.0.0.1:63430</text><text x="56.112" y="1.67" class="f">against</text><text x="64.128" y="1.67" class="f">a</text><text x="66.132" y="1.67" class="f">fresh</text><text x="72.144" y="1.67" class="f">ephemeral</text></symbol><symbol id="7"><text y="1.67" class="f">DB</text></symbol><symbol id="8"><text y="1.67" class="f">[boot]</text><text x="7.014" y="1.67" class="f">server</text><text x="14.028" y="1.67" class="f">is</text><text x="17.034" y="1.67" class="f">up</text></symbol><symbol id="9"><text y="1.67" class="f">[boot]</text><text x="7.014" y="1.67" class="f">operator</text><text x="16.032" y="1.67" class="f">holds</text><text x="22.044" y="1.67" class="f">the</text><text x="26.052" y="1.67" class="f">first-run</text><text x="36.072" y="1.67" class="f">bootstrap</text><text x="46.092" y="1.67" class="f">key</text></symbol><symbol id="10"><text y="1.67" class="f">[setup]</text><text x="8.016" y="1.67" class="f">creating</text><text x="17.034" y="1.67" class="f">card</text><text x="22.044" y="1.67" class="f">lease-race-demo-1784055477</text><text x="49.098" y="1.67" class="f">(as</text><text x="53.106" y="1.67" class="f">the</text><text x="57.114" y="1.67" class="f">operator)</text></symbol><symbol id="11"><text y="1.67" class="g">{</text><text x="1.002" y="1.67" class="h">&quot;id&quot;</text><text x="5.01" y="1.67" class="g">:</text><text x="6.012" y="1.67" class="i">&quot;lease-race-demo-1784055477&quot;</text><text x="34.068" y="1.67" class="g">,</text><text x="35.07" y="1.67" class="h">&quot;status&quot;</text><text x="43.086" y="1.67" class="g">:</text><text x="44.088" y="1.67" class="i">&quot;ready&quot;</text><text x="51.102" y="1.67" class="g">}</text></symbol><symbol id="12"><text y="1.67" class="f">[setup]</text><text x="8.016" y="1.67" class="f">minting</text><text x="16.032" y="1.67" class="f">one</text><text x="20.04" y="1.67" class="f">agent-scope</text><text x="32.064" y="1.67" class="f">key</text><text x="36.072" y="1.67" class="f">per</text><text x="40.08" y="1.67" class="f">actor</text><text x="46.092" y="1.67" class="f">(powder</text><text x="54.108" y="1.67" class="f">key-create</text><text x="65.13" y="1.67" class="f">--db,</text><text x="71.142" y="1.67" class="f">the</text><text x="75.15" y="1.67" class="f">documen</text></symbol><symbol id="13"><text y="1.67" class="f">ted</text><text x="4.008" y="1.67" class="f">operator</text><text x="13.026" y="1.67" class="f">pattern)</text></symbol><symbol id="14"><text y="1.67" class="f">[setup]</text><text x="8.016" y="1.67" class="f">actors</text><text x="15.03" y="1.67" class="f">hold</text><text x="20.04" y="1.67" class="f">their</text><text x="26.052" y="1.67" class="f">own</text><text x="30.06" y="1.67" class="f">keys;</text><text x="36.072" y="1.67" class="f">every</text><text x="42.084" y="1.67" class="f">audited</text><text x="50.1" y="1.67" class="f">event</text><text x="56.112" y="1.67" class="f">below</text><text x="62.124" y="1.67" class="f">is</text><text x="65.13" y="1.67" class="f">attributed</text><text x="76.152" y="1.67" class="f">to</text><text x="79.158" y="1.67" class="f">its</text></symbol><symbol id="15"><text x="1.002" y="1.67" class="f">actor</text></symbol><symbol id="16"><text y="1.67" class="f">[actor</text><text x="7.014" y="1.67" class="f">A:</text><text x="10.02" y="1.67" class="f">codex-agent]</text><text x="23.046" y="1.67" class="f">claiming</text><text x="32.064" y="1.67" class="f">with</text><text x="37.074" y="1.67" class="f">ttl_seconds=2</text></symbol><symbol id="17"><text y="1.67" class="g">{</text><text x="1.002" y="1.67" class="h">&quot;agent&quot;</text><text x="8.016" y="1.67" class="g">:</text><text x="9.018" y="1.67" class="i">&quot;codex-agent&quot;</text><text x="22.044" y="1.67" class="g">,</text><text x="23.046" y="1.67" class="h">&quot;card_id&quot;</text><text x="32.064" y="1.67" class="g">:</text><text x="33.066" y="1.67" class="i">&quot;lease-race-demo-1784055477&quot;</text><text x="61.122" y="1.67" class="g">,</text><text x="62.124" y="1.67" class="h">&quot;expires_at&quot;</text><text x="74.148" y="1.67" class="g">:</text><text x="75.15" y="1.67" class="f">1784055</text></symbol><symbol id="18"><text y="1.67" class="f">486</text><text x="3.006" y="1.67" class="g">,</text><text x="4.008" y="1.67" class="h">&quot;run_id&quot;</text><text x="12.024" y="1.67" class="g">:</text><text x="13.026" y="1.67" class="i">&quot;run-syqqdZ2Udpms&quot;</text><text x="31.062" y="1.67" class="g">}</text></symbol><symbol id="19"><text y="1.67" class="f">[actor</text><text x="7.014" y="1.67" class="f">A]</text><text x="10.02" y="1.67" class="f">run_id=run-syqqdZ2Udpms</text><text x="34.068" y="1.67" class="f">expires_at=1784055486</text></symbol><symbol id="20"><text y="1.67" class="f">[check]</text><text x="8.016" y="1.67" class="f">while</text><text x="14.028" y="1.67" class="f">the</text><text x="18.036" y="1.67" class="f">lease</text><text x="24.048" y="1.67" class="f">is</text><text x="27.054" y="1.67" class="f">live,</text><text x="33.066" y="1.67" class="f">list_ready</text><text x="44.088" y="1.67" class="f">must</text><text x="49.098" y="1.67" class="f">EXCLUDE</text><text x="57.114" y="1.67" class="f">the</text><text x="61.122" y="1.67" class="f">card</text><text x="66.132" y="1.67" class="f">(leases</text><text x="74.148" y="1.67" class="f">actually</text></symbol><symbol id="21"><text x="1.002" y="1.67" class="f">gate</text><text x="6.012" y="1.67" class="f">the</text><text x="10.02" y="1.67" class="f">pool)</text></symbol><symbol id="22"><text y="1.67" class="f">[check]</text><text x="8.016" y="1.67" class="f">confirmed:</text><text x="19.038" y="1.67" class="f">card</text><text x="24.048" y="1.67" class="f">is</text><text x="27.054" y="1.67" class="f">NOT</text><text x="31.062" y="1.67" class="f">in</text><text x="34.068" y="1.67" class="f">list_ready</text><text x="45.09" y="1.67" class="f">while</text><text x="51.102" y="1.67" class="f">claimed</text></symbol><symbol id="23"><text y="1.67" class="f">[actor</text><text x="7.014" y="1.67" class="f">A]</text><text x="10.02" y="1.67" class="f">appending</text><text x="20.04" y="1.67" class="f">a</text><text x="22.044" y="1.67" class="f">work-log</text><text x="31.062" y="1.67" class="f">entry,</text><text x="38.076" y="1.67" class="f">then</text><text x="43.086" y="1.67" class="f">going</text><text x="49.098" y="1.67" class="f">dark</text></symbol><symbol id="24"><text y="1.67" class="g">{</text><text x="1.002" y="1.67" class="h">&quot;card_id&quot;</text><text x="10.02" y="1.67" class="g">:</text><text x="11.022" y="1.67" class="i">&quot;lease-race-demo-1784055477&quot;</text><text x="39.078" y="1.67" class="g">,</text><text x="40.08" y="1.67" class="h">&quot;agent&quot;</text><text x="47.094" y="1.67" class="g">:</text><text x="48.096" y="1.67" class="i">&quot;codex-agent&quot;</text><text x="61.122" y="1.67" class="g">}</text></symbol><symbol id="25"><text y="1.67" class="f">[actor</text><text x="7.014" y="1.67" class="f">A]</text><text x="10.02" y="1.67" class="f">***</text><text x="14.028" y="1.67" class="f">crash</text><text x="20.04" y="1.67" class="f">***</text><text x="24.048" y="1.67" class="f">(no</text><text x="28.056" y="1.67" class="f">heartbeat,</text><text x="39.078" y="1.67" class="f">no</text><text x="42.084" y="1.67" class="f">release</text><text x="50.1" y="1.67" class="f">--</text><text x="53.106" y="1.67" class="f">the</text><text x="57.114" y="1.67" class="f">lease</text><text x="63.126" y="1.67" class="f">is</text><text x="66.132" y="1.67" class="f">left</text><text x="71.142" y="1.67" class="f">to</text><text x="74.148" y="1.67" class="f">expire</text><text x="81.162" y="1.67" class="f">o</text></symbol><symbol id="26"><text y="1.67" class="f">n</text><text x="2.004" y="1.67" class="f">its</text><text x="6.012" y="1.67" class="f">own)</text></symbol><symbol id="27"><text y="1.67" class="f">[actor</text><text x="7.014" y="1.67" class="f">B:</text><text x="10.02" y="1.67" class="f">human-with-curl]</text><text x="27.054" y="1.67" class="f">polling</text><text x="35.07" y="1.67" class="f">list_ready</text><text x="46.092" y="1.67" class="f">until</text><text x="52.104" y="1.67" class="f">the</text><text x="56.112" y="1.67" class="f">card</text><text x="61.122" y="1.67" class="f">returns</text><text x="69.138" y="1.67" class="f">(TTL</text><text x="74.148" y="1.67" class="f">expiry,</text></symbol><symbol id="28"><text y="1.67" class="f">no</text><text x="3.006" y="1.67" class="f">human</text><text x="9.018" y="1.67" class="f">unsticking</text><text x="20.04" y="1.67" class="f">it)</text></symbol><symbol id="29"><text y="1.67" class="f">[actor</text><text x="7.014" y="1.67" class="f">B]</text><text x="10.02" y="1.67" class="f">card</text><text x="15.03" y="1.67" class="f">reclaimed</text><text x="25.05" y="1.67" class="f">via</text><text x="29.058" y="1.67" class="f">list_ready</text><text x="40.08" y="1.67" class="f">after</text><text x="46.092" y="1.67" class="f">2s</text><text x="49.098" y="1.67" class="f">(asserted</text><text x="59.118" y="1.67" class="f">&gt;=</text><text x="62.124" y="1.67" class="f">1s</text><text x="65.13" y="1.67" class="f">and</text><text x="69.138" y="1.67" class="f">&lt;</text><text x="71.142" y="1.67" class="f">10s)</text></symbol><symbol id="30"><text y="1.67" class="f">[actor</text><text x="7.014" y="1.67" class="f">B]</text><text x="10.02" y="1.67" class="f">claiming</text><text x="19.038" y="1.67" class="f">the</text><text x="23.046" y="1.67" class="f">abandoned</text><text x="33.066" y="1.67" class="f">card</text></symbol><symbol id="31"><text y="1.67" class="g">{</text><text x="1.002" y="1.67" class="h">&quot;agent&quot;</text><text x="8.016" y="1.67" class="g">:</text><text x="9.018" y="1.67" class="i">&quot;human-with-curl&quot;</text><text x="26.052" y="1.67" class="g">,</text><text x="27.054" y="1.67" class="h">&quot;card_id&quot;</text><text x="36.072" y="1.67" class="g">:</text><text x="37.074" y="1.67" class="i">&quot;lease-race-demo-1784055477&quot;</text><text x="65.13" y="1.67" class="g">,</text><text x="66.132" y="1.67" class="h">&quot;expires_at&quot;</text><text x="78.156" y="1.67" class="g">:</text><text x="79.158" y="1.67" class="f">178</text></symbol><symbol id="32"><text y="1.67" class="f">4059086</text><text x="7.014" y="1.67" class="g">,</text><text x="8.016" y="1.67" class="h">&quot;run_id&quot;</text><text x="16.032" y="1.67" class="g">:</text><text x="17.034" y="1.67" class="i">&quot;run-rRCYve7NENMj&quot;</text><text x="35.07" y="1.67" class="g">}</text></symbol><symbol id="33"><text y="1.67" class="f">[actor</text><text x="7.014" y="1.67" class="f">B]</text><text x="10.02" y="1.67" class="f">run_id=run-rRCYve7NENMj</text></symbol><symbol id="34"><text y="1.67" class="f">[actor</text><text x="7.014" y="1.67" class="f">B]</text><text x="10.02" y="1.67" class="f">completing</text><text x="21.042" y="1.67" class="f">the</text><text x="25.05" y="1.67" class="f">card</text><text x="30.06" y="1.67" class="f">with</text><text x="35.07" y="1.67" class="f">proof</text><text x="41.082" y="1.67" class="f">(attribution</text><text x="54.108" y="1.67" class="f">comes</text><text x="60.12" y="1.67" class="f">from</text><text x="65.13" y="1.67" class="f">actor</text><text x="71.142" y="1.67" class="f">B&apos;s</text><text x="75.15" y="1.67" class="f">own</text><text x="79.158" y="1.67" class="f">key</text></symbol><symbol id="35"><text y="1.67" class="f">)</text></symbol><symbol id="36"><text y="1.67" class="g">{</text><text x="1.002" y="1.67" class="h">&quot;id&quot;</text><text x="5.01" y="1.67" class="g">:</text><text x="6.012" y="1.67" class="i">&quot;lease-race-demo-1784055477&quot;</text><text x="34.068" y="1.67" class="g">,</text><text x="35.07" y="1.67" class="h">&quot;status&quot;</text><text x="43.086" y="1.67" class="g">:</text><text x="44.088" y="1.67" class="i">&quot;done&quot;</text><text x="50.1" y="1.67" class="g">}</text></symbol><symbol id="37"><text y="1.67" class="f">[readback]</text><text x="11.022" y="1.67" class="f">fetching</text><text x="20.04" y="1.67" class="f">card</text><text x="25.05" y="1.67" class="f">detail</text><text x="32.064" y="1.67" class="f">(detail=detailed)</text><text x="50.1" y="1.67" class="f">for</text><text x="54.108" y="1.67" class="f">the</text><text x="58.116" y="1.67" class="f">runs/work-log</text><text x="72.144" y="1.67" class="f">trail</text></symbol><symbol id="38"><text y="1.67" class="f">[readback]</text><text x="11.022" y="1.67" class="f">fetching</text><text x="20.04" y="1.67" class="f">the</text><text x="24.048" y="1.67" class="f">outbound</text><text x="33.066" y="1.67" class="f">event</text><text x="39.078" y="1.67" class="f">tail</text><text x="44.088" y="1.67" class="f">(this</text><text x="50.1" y="1.67" class="f">is</text><text x="53.106" y="1.67" class="f">where</text><text x="59.118" y="1.67" class="f">claim-expired/completed</text></symbol><symbol id="39"><text x="1.002" y="1.67" class="f">live</text><text x="6.012" y="1.67" class="f">--</text></symbol><symbol id="40"><text x="11.022" y="1.67" class="f">they</text><text x="16.032" y="1.67" class="f">are</text><text x="20.04" y="1.67" class="f">webhook-delivery</text><text x="37.074" y="1.67" class="f">events,</text><text x="45.09" y="1.67" class="f">not</text><text x="49.098" y="1.67" class="f">the</text><text x="53.106" y="1.67" class="f">card_events</text><text x="65.13" y="1.67" class="f">audit</text><text x="71.142" y="1.67" class="f">rows,</text><text x="77.154" y="1.67" class="f">so</text><text x="80.16" y="1.67" class="f">a</text></symbol><symbol id="41"><text y="1.67" class="f">card</text></symbol><symbol id="42"><text x="11.022" y="1.67" class="f">detail</text><text x="18.036" y="1.67" class="f">read</text><text x="23.046" y="1.67" class="f">alone</text><text x="29.058" y="1.67" class="f">does</text><text x="34.068" y="1.67" class="f">not</text><text x="38.076" y="1.67" class="f">show</text><text x="43.086" y="1.67" class="f">them;</text><text x="49.098" y="1.67" class="f">GET</text><text x="53.106" y="1.67" class="f">/api/v1/events/tail</text><text x="73.146" y="1.67" class="f">does)</text></symbol><symbol id="43"><text y="1.67" class="f">===</text><text x="4.008" y="1.67" class="f">Race</text><text x="9.018" y="1.67" class="f">transcript</text><text x="20.04" y="1.67" class="f">(from</text><text x="26.052" y="1.67" class="f">the</text><text x="30.06" y="1.67" class="f">audit</text><text x="36.072" y="1.67" class="f">trail,</text><text x="43.086" y="1.67" class="f">not</text><text x="47.094" y="1.67" class="f">narration)</text><text x="58.116" y="1.67" class="f">===</text></symbol><symbol id="44"><text y="1.67" class="f">at</text><text x="13.026" y="1.67" class="f">actor</text><text x="30.06" y="1.67" class="f">event</text></symbol><symbol id="45"><text y="1.67" class="f">1784055484</text><text x="13.026" y="1.67" class="f">codex-agent</text><text x="30.06" y="1.67" class="f">claim,</text><text x="37.074" y="1.67" class="f">run</text><text x="41.082" y="1.67" class="f">run-syqqdZ2Udpms</text></symbol><symbol id="46"><text y="1.67" class="f">1784055484</text><text x="13.026" y="1.67" class="f">codex-agent</text><text x="30.06" y="1.67" class="f">work-log-appended</text></symbol><symbol id="47"><text y="1.67" class="f">1784055486</text><text x="13.026" y="1.67" class="f">codex-agent</text><text x="30.06" y="1.67" class="f">claim-expired</text></symbol><symbol id="48"><text y="1.67" class="f">1784055486</text><text x="13.026" y="1.67" class="f">human-with-curl</text><text x="30.06" y="1.67" class="f">claim,</text><text x="37.074" y="1.67" class="f">run</text><text x="41.082" y="1.67" class="f">run-rRCYve7NENMj</text></symbol><symbol id="49"><text y="1.67" class="f">1784055486</text><text x="13.026" y="1.67" class="f">human-with-curl</text><text x="30.06" y="1.67" class="f">completed</text></symbol><symbol id="a"><path fill="transparent" d="M0 0h82v25H0z"/></symbol></defs><path class="a" d="M0 0h82v52.104H0z"/><g style="animation-duration:9.747926s;animation-iteration-count:infinite;animation-name:k;animation-timing-function:steps(1,end)"><svg width="2624"><svg><use xlink:href="#a"/></svg><svg x="82"><use xlink:href="#a"/><use xlink:href="#1"/><use xlink:href="#2" y="2.171"/><use xlink:href="#3" y="4.342"/><use xlink:href="#4" y="6.513"/><use xlink:href="#5" y="8.684"/></svg><svg x="164"><use xlink:href="#a"/><use xlink:href="#1"/><use xlink:href="#2" y="2.171"/><use xlink:href="#3" y="4.342"/><use xlink:href="#4" y="6.513"/><use xlink:href="#5" y="8.684"/><use xlink:href="#6" y="10.855"/><use xlink:href="#7" y="13.026"/></svg><svg x="246"><use xlink:href="#a"/><use xlink:href="#1"/><use xlink:href="#2" y="2.171"/><use xlink:href="#3" y="4.342"/><use xlink:href="#4" y="6.513"/><use xlink:href="#5" y="8.684"/><use xlink:href="#6" y="10.855"/><use xlink:href="#7" y="13.026"/><use xlink:href="#8" y="15.197"/></svg><svg x="328"><use xlink:href="#a"/><use xlink:href="#1"/><use xlink:href="#2" y="2.171"/><use xlink:href="#3" y="4.342"/><use xlink:href="#4" y="6.513"/><use xlink:href="#5" y="8.684"/><use xlink:href="#6" y="10.855"/><use xlink:href="#7" y="13.026"/><use xlink:href="#8" y="15.197"/><use xlink:href="#9" y="17.368"/><use xlink:href="#4" y="19.539"/><use xlink:href="#10" y="21.71"/></svg><svg x="410"><use xlink:href="#a"/><use xlink:href="#1"/><use xlink:href="#2" y="2.171"/><use xlink:href="#3" y="4.342"/><use xlink:href="#4" y="6.513"/><use xlink:href="#5" y="8.684"/><use xlink:href="#6" y="10.855"/><use xlink:href="#7" y="13.026"/><use xlink:href="#8" y="15.197"/><use xlink:href="#9" y="17.368"/><use xlink:href="#4" y="19.539"/><use xlink:href="#10" y="21.71"/><use xlink:href="#11" y="23.881"/></svg><svg x="492"><use xlink:href="#a"/><use xlink:href="#1"/><use xlink:href="#2" y="2.171"/><use xlink:href="#3" y="4.342"/><use xlink:href="#4" y="6.513"/><use xlink:href="#5" y="8.684"/><use xlink:href="#6" y="10.855"/><use xlink:href="#7" y="13.026"/><use xlink:href="#8" y="15.197"/><use xlink:href="#9" y="17.368"/><use xlink:href="#4" y="19.539"/><use xlink:href="#10" y="21.71"/><use xlink:href="#11" y="23.881"/><use xlink:href="#12" y="26.052"/><use xlink:href="#13" y="28.223"/></svg><svg x="574"><use xlink:href="#a"/><use xlink:href="#1"/><use xlink:href="#2" y="2.171"/><use xlink:href="#3" y="4.342"/><use xlink:href="#4" y="6.513"/><use xlink:href="#5" y="8.684"/><use xlink:href="#6" y="10.855"/><use xlink:href="#7" y="13.026"/><use xlink:href="#8" y="15.197"/><use xlink:href="#9" y="17.368"/><use xlink:href="#4" y="19.539"/><use xlink:href="#10" y="21.71"/><use xlink:href="#11" y="23.881"/><use xlink:href="#12" y="26.052"/><use xlink:href="#13" y="28.223"/><use xlink:href="#14" y="30.394"/><use xlink:href="#15" y="32.565"/><use xlink:href="#4" y="34.736"/></svg><svg x="656"><use xlink:href="#a"/><use xlink:href="#1"/><use xlink:href="#2" y="2.171"/><use xlink:href="#3" y="4.342"/><use xlink:href="#4" y="6.513"/><use xlink:href="#5" y="8.684"/><use xlink:href="#6" y="10.855"/><use xlink:href="#7" y="13.026"/><use xlink:href="#8" y="15.197"/><use xlink:href="#9" y="17.368"/><use xlink:href="#4" y="19.539"/><use xlink:href="#10" y="21.71"/><use xlink:href="#11" y="23.881"/><use xlink:href="#12" y="26.052"/><use xlink:href="#13" y="28.223"/><use xlink:href="#14" y="30.394"/><use xlink:href="#15" y="32.565"/><use xlink:href="#4" y="34.736"/><use xlink:href="#16" y="36.907"/></svg><svg x="738"><use xlink:href="#a"/><use xlink:href="#1"/><use xlink:href="#2" y="2.171"/><use xlink:href="#3" y="4.342"/><use xlink:href="#4" y="6.513"/><use xlink:href="#5" y="8.684"/><use xlink:href="#6" y="10.855"/><use xlink:href="#7" y="13.026"/><use xlink:href="#8" y="15.197"/><use xlink:href="#9" y="17.368"/><use xlink:href="#4" y="19.539"/><use xlink:href="#10" y="21.71"/><use xlink:href="#11" y="23.881"/><use xlink:href="#12" y="26.052"/><use xlink:href="#13" y="28.223"/><use xlink:href="#14" y="30.394"/><use xlink:href="#15" y="32.565"/><use xlink:href="#4" y="34.736"/><use xlink:href="#16" y="36.907"/><use xlink:href="#17" y="39.078"/><use xlink:href="#18" y="41.249"/></svg><svg x="820"><use xlink:href="#a"/><use xlink:href="#1"/><use xlink:href="#2" y="2.171"/><use xlink:href="#3" y="4.342"/><use xlink:href="#4" y="6.513"/><use xlink:href="#5" y="8.684"/><use xlink:href="#6" y="10.855"/><use xlink:href="#7" y="13.026"/><use xlink:href="#8" y="15.197"/><use xlink:href="#9" y="17.368"/><use xlink:href="#4" y="19.539"/><use xlink:href="#10" y="21.71"/><use xlink:href="#11" y="23.881"/><use xlink:href="#12" y="26.052"/><use xlink:href="#13" y="28.223"/><use xlink:href="#14" y="30.394"/><use xlink:href="#15" y="32.565"/><use xlink:href="#4" y="34.736"/><use xlink:href="#16" y="36.907"/><use xlink:href="#17" y="39.078"/><use xlink:href="#18" y="41.249"/><use xlink:href="#19" y="43.42"/><use xlink:href="#20" y="45.591"/><use xlink:href="#21" y="47.762"/></svg><svg x="902"><use xlink:href="#a"/><use xlink:href="#2"/><use xlink:href="#3" y="2.171"/><use xlink:href="#4" y="4.342"/><use xlink:href="#5" y="6.513"/><use xlink:href="#6" y="8.684"/><use xlink:href="#7" y="10.855"/><use xlink:href="#8" y="13.026"/><use xlink:href="#9" y="15.197"/><use xlink:href="#4" y="17.368"/><use xlink:href="#10" y="19.539"/><use xlink:href="#11" y="21.71"/><use xlink:href="#12" y="23.881"/><use xlink:href="#13" y="26.052"/><use xlink:href="#14" y="28.223"/><use xlink:href="#15" y="30.394"/><use xlink:href="#4" y="32.565"/><use xlink:href="#16" y="34.736"/><use xlink:href="#17" y="36.907"/><use xlink:href="#18" y="39.078"/><use xlink:href="#19" y="41.249"/><use xlink:href="#20" y="43.42"/><use xlink:href="#21" y="45.591"/><use xlink:href="#22" y="47.762"/><use xlink:href="#23" y="49.933"/></svg><svg x="984"><use xlink:href="#a"/><use xlink:href="#3"/><use xlink:href="#4" y="2.171"/><use xlink:href="#5" y="4.342"/><use xlink:href="#6" y="6.513"/><use xlink:href="#7" y="8.684"/><use xlink:href="#8" y="10.855"/><use xlink:href="#9" y="13.026"/><use xlink:href="#4" y="15.197"/><use xlink:href="#10" y="17.368"/><use xlink:href="#11" y="19.539"/><use xlink:href="#12" y="21.71"/><use xlink:href="#13" y="23.881"/><use xlink:href="#14" y="26.052"/><use xlink:href="#15" y="28.223"/><use xlink:href="#4" y="30.394"/><use xlink:href="#16" y="32.565"/><use xlink:href="#17" y="34.736"/><use xlink:href="#18" y="36.907"/><use xlink:href="#19" y="39.078"/><use xlink:href="#20" y="41.249"/><use xlink:href="#21" y="43.42"/><use xlink:href="#22" y="45.591"/><use xlink:href="#23" y="47.762"/><use xlink:href="#24" y="49.933"/></svg><svg x="1066"><use xlink:href="#a"/><use xlink:href="#8"/><use xlink:href="#9" y="2.171"/><use xlink:href="#4" y="4.342"/><use xlink:href="#10" y="6.513"/><use xlink:href="#11" y="8.684"/><use xlink:href="#12" y="10.855"/><use xlink:href="#13" y="13.026"/><use xlink:href="#14" y="15.197"/><use xlink:href="#15" y="17.368"/><use xlink:href="#4" y="19.539"/><use xlink:href="#16" y="21.71"/><use xlink:href="#17" y="23.881"/><use xlink:href="#18" y="26.052"/><use xlink:href="#19" y="28.223"/><use xlink:href="#20" y="30.394"/><use xlink:href="#21" y="32.565"/><use xlink:href="#22" y="34.736"/><use xlink:href="#23" y="36.907"/><use xlink:href="#24" y="39.078"/><use xlink:href="#25" y="41.249"/><use xlink:href="#26" y="43.42"/><use xlink:href="#4" y="45.591"/><use xlink:href="#27" y="47.762"/><use xlink:href="#28" y="49.933"/></svg><svg x="1148"><use xlink:href="#a"/><use xlink:href="#10"/><use xlink:href="#11" y="2.171"/><use xlink:href="#12" y="4.342"/><use xlink:href="#13" y="6.513"/><use xlink:href="#14" y="8.684"/><use xlink:href="#15" y="10.855"/><use xlink:href="#4" y="13.026"/><use xlink:href="#16" y="15.197"/><use xlink:href="#17" y="17.368"/><use xlink:href="#18" y="19.539"/><use xlink:href="#19" y="21.71"/><use xlink:href="#20" y="23.881"/><use xlink:href="#21" y="26.052"/><use xlink:href="#22" y="28.223"/><use xlink:href="#23" y="30.394"/><use xlink:href="#24" y="32.565"/><use xlink:href="#25" y="34.736"/><use xlink:href="#26" y="36.907"/><use xlink:href="#4" y="39.078"/><use xlink:href="#27" y="41.249"/><use xlink:href="#28" y="43.42"/><use xlink:href="#29" y="45.591"/><use xlink:href="#4" y="47.762"/><use xlink:href="#30" y="49.933"/></svg><svg x="1230"><use xlink:href="#a"/><use xlink:href="#12"/><use xlink:href="#13" y="2.171"/><use xlink:href="#14" y="4.342"/><use xlink:href="#15" y="6.513"/><use xlink:href="#4" y="8.684"/><use xlink:href="#16" y="10.855"/><use xlink:href="#17" y="13.026"/><use xlink:href="#18" y="15.197"/><use xlink:href="#19" y="17.368"/><use xlink:href="#20" y="19.539"/><use xlink:href="#21" y="21.71"/><use xlink:href="#22" y="23.881"/><use xlink:href="#23" y="26.052"/><use xlink:href="#24" y="28.223"/><use xlink:href="#25" y="30.394"/><use xlink:href="#26" y="32.565"/><use xlink:href="#4" y="34.736"/><use xlink:href="#27" y="36.907"/><use xlink:href="#28" y="39.078"/><use xlink:href="#29" y="41.249"/><use xlink:href="#4" y="43.42"/><use xlink:href="#30" y="45.591"/><use xlink:href="#31" y="47.762"/><use xlink:href="#32" y="49.933"/></svg><svg x="1312"><use xlink:href="#a"/><use xlink:href="#13"/><use xlink:href="#14" y="2.171"/><use xlink:href="#15" y="4.342"/><use xlink:href="#4" y="6.513"/><use xlink:href="#16" y="8.684"/><use xlink:href="#17" y="10.855"/><use xlink:href="#18" y="13.026"/><use xlink:href="#19" y="15.197"/><use xlink:href="#20" y="17.368"/><use xlink:href="#21" y="19.539"/><use xlink:href="#22" y="21.71"/><use xlink:href="#23" y="23.881"/><use xlink:href="#24" y="26.052"/><use xlink:href="#25" y="28.223"/><use xlink:href="#26" y="30.394"/><use xlink:href="#4" y="32.565"/><use xlink:href="#27" y="34.736"/><use xlink:href="#28" y="36.907"/><use xlink:href="#29" y="39.078"/><use xlink:href="#4" y="41.249"/><use xlink:href="#30" y="43.42"/><use xlink:href="#31" y="45.591"/><use xlink:href="#32" y="47.762"/><use xlink:href="#33" y="49.933"/></svg><svg x="1394"><use xlink:href="#a"/><use xlink:href="#15"/><use xlink:href="#4" y="2.171"/><use xlink:href="#16" y="4.342"/><use xlink:href="#17" y="6.513"/><use xlink:href="#18" y="8.684"/><use xlink:href="#19" y="10.855"/><use xlink:href="#20" y="13.026"/><use xlink:href="#21" y="15.197"/><use xlink:href="#22" y="17.368"/><use xlink:href="#23" y="19.539"/><use xlink:href="#24" y="21.71"/><use xlink:href="#25" y="23.881"/><use xlink:href="#26" y="26.052"/><use xlink:href="#4" y="28.223"/><use xlink:href="#27" y="30.394"/><use xlink:href="#28" y="32.565"/><use xlink:href="#29" y="34.736"/><use xlink:href="#4" y="36.907"/><use xlink:href="#30" y="39.078"/><use xlink:href="#31" y="41.249"/><use xlink:href="#32" y="43.42"/><use xlink:href="#33" y="45.591"/><use xlink:href="#34" y="47.762"/><use xlink:href="#35" y="49.933"/></svg><svg x="1476"><use xlink:href="#a"/><use xlink:href="#4"/><use xlink:href="#16" y="2.171"/><use xlink:href="#17" y="4.342"/><use xlink:href="#18" y="6.513"/><use xlink:href="#19" y="8.684"/><use xlink:href="#20" y="10.855"/><use xlink:href="#21" y="13.026"/><use xlink:href="#22" y="15.197"/><use xlink:href="#23" y="17.368"/><use xlink:href="#24" y="19.539"/><use xlink:href="#25" y="21.71"/><use xlink:href="#26" y="23.881"/><use xlink:href="#4" y="26.052"/><use xlink:href="#27" y="28.223"/><use xlink:href="#28" y="30.394"/><use xlink:href="#29" y="32.565"/><use xlink:href="#4" y="34.736"/><use xlink:href="#30" y="36.907"/><use xlink:href="#31" y="39.078"/><use xlink:href="#32" y="41.249"/><use xlink:href="#33" y="43.42"/><use xlink:href="#34" y="45.591"/><use xlink:href="#35" y="47.762"/><use xlink:href="#36" y="49.933"/></svg><svg x="1558"><use xlink:href="#a"/><use xlink:href="#16"/><use xlink:href="#17" y="2.171"/><use xlink:href="#18" y="4.342"/><use xlink:href="#19" y="6.513"/><use xlink:href="#20" y="8.684"/><use xlink:href="#21" y="10.855"/><use xlink:href="#22" y="13.026"/><use xlink:href="#23" y="15.197"/><use xlink:href="#24" y="17.368"/><use xlink:href="#25" y="19.539"/><use xlink:href="#26" y="21.71"/><use xlink:href="#4" y="23.881"/><use xlink:href="#27" y="26.052"/><use xlink:href="#28" y="28.223"/><use xlink:href="#29" y="30.394"/><use xlink:href="#4" y="32.565"/><use xlink:href="#30" y="34.736"/><use xlink:href="#31" y="36.907"/><use xlink:href="#32" y="39.078"/><use xlink:href="#33" y="41.249"/><use xlink:href="#34" y="43.42"/><use xlink:href="#35" y="45.591"/><use xlink:href="#36" y="47.762"/><use xlink:href="#4" y="49.933"/></svg><svg x="1640"><use xlink:href="#a"/><use xlink:href="#17"/><use xlink:href="#18" y="2.171"/><use xlink:href="#19" y="4.342"/><use xlink:href="#20" y="6.513"/><use xlink:href="#21" y="8.684"/><use xlink:href="#22" y="10.855"/><use xlink:href="#23" y="13.026"/><use xlink:href="#24" y="15.197"/><use xlink:href="#25" y="17.368"/><use xlink:href="#26" y="19.539"/><use xlink:href="#4" y="21.71"/><use xlink:href="#27" y="23.881"/><use xlink:href="#28" y="26.052"/><use xlink:href="#29" y="28.223"/><use xlink:href="#4" y="30.394"/><use xlink:href="#30" y="32.565"/><use xlink:href="#31" y="34.736"/><use xlink:href="#32" y="36.907"/><use xlink:href="#33" y="39.078"/><use xlink:href="#34" y="41.249"/><use xlink:href="#35" y="43.42"/><use xlink:href="#36" y="45.591"/><use xlink:href="#4" y="47.762"/><use xlink:href="#37" y="49.933"/></svg><svg x="1722"><use xlink:href="#a"/><use xlink:href="#21"/><use xlink:href="#22" y="2.171"/><use xlink:href="#23" y="4.342"/><use xlink:href="#24" y="6.513"/><use xlink:href="#25" y="8.684"/><use xlink:href="#26" y="10.855"/><use xlink:href="#4" y="13.026"/><use xlink:href="#27" y="15.197"/><use xlink:href="#28" y="17.368"/><use xlink:href="#29" y="19.539"/><use xlink:href="#4" y="21.71"/><use xlink:href="#30" y="23.881"/><use xlink:href="#31" y="26.052"/><use xlink:href="#32" y="28.223"/><use xlink:href="#33" y="30.394"/><use xlink:href="#34" y="32.565"/><use xlink:href="#35" y="34.736"/><use xlink:href="#36" y="36.907"/><use xlink:href="#4" y="39.078"/><use xlink:href="#37" y="41.249"/><use xlink:href="#38" y="43.42"/><use xlink:href="#39" y="45.591"/><use xlink:href="#40" y="47.762"/><use xlink:href="#41" y="49.933"/></svg><svg x="1804"><use xlink:href="#a"/><use xlink:href="#22"/><use xlink:href="#23" y="2.171"/><use xlink:href="#24" y="4.342"/><use xlink:href="#25" y="6.513"/><use xlink:href="#26" y="8.684"/><use xlink:href="#4" y="10.855"/><use xlink:href="#27" y="13.026"/><use xlink:href="#28" y="15.197"/><use xlink:href="#29" y="17.368"/><use xlink:href="#4" y="19.539"/><use xlink:href="#30" y="21.71"/><use xlink:href="#31" y="23.881"/><use xlink:href="#32" y="26.052"/><use xlink:href="#33" y="28.223"/><use xlink:href="#34" y="30.394"/><use xlink:href="#35" y="32.565"/><use xlink:href="#36" y="34.736"/><use xlink:href="#4" y="36.907"/><use xlink:href="#37" y="39.078"/><use xlink:href="#38" y="41.249"/><use xlink:href="#39" y="43.42"/><use xlink:href="#40" y="45.591"/><use xlink:href="#41" y="47.762"/><use xlink:href="#42" y="49.933"/></svg><svg x="1886"><use xlink:href="#a"/><use xlink:href="#24"/><use xlink:href="#25" y="2.171"/><use xlink:href="#26" y="4.342"/><use xlink:href="#4" y="6.513"/><use xlink:href="#27" y="8.684"/><use xlink:href="#28" y="10.855"/><use xlink:href="#29" y="13.026"/><use xlink:href="#4" y="15.197"/><use xlink:href="#30" y="17.368"/><use xlink:href="#31" y="19.539"/><use xlink:href="#32" y="21.71"/><use xlink:href="#33" y="23.881"/><use xlink:href="#34" y="26.052"/><use xlink:href="#35" y="28.223"/><use xlink:href="#36" y="30.394"/><use xlink:href="#4" y="32.565"/><use xlink:href="#37" y="34.736"/><use xlink:href="#38" y="36.907"/><use xlink:href="#39" y="39.078"/><use xlink:href="#40" y="41.249"/><use xlink:href="#41" y="43.42"/><use xlink:href="#42" y="45.591"/><use xlink:href="#4" y="47.762"/><use xlink:href="#43" y="49.933"/></svg><svg x="1968"><use xlink:href="#a"/><use xlink:href="#25"/><use xlink:href="#26" y="2.171"/><use xlink:href="#4" y="4.342"/><use xlink:href="#27" y="6.513"/><use xlink:href="#28" y="8.684"/><use xlink:href="#29" y="10.855"/><use xlink:href="#4" y="13.026"/><use xlink:href="#30" y="15.197"/><use xlink:href="#31" y="17.368"/><use xlink:href="#32" y="19.539"/><use xlink:href="#33" y="21.71"/><use xlink:href="#34" y="23.881"/><use xlink:href="#35" y="26.052"/><use xlink:href="#36" y="28.223"/><use xlink:href="#4" y="30.394"/><use xlink:href="#37" y="32.565"/><use xlink:href="#38" y="34.736"/><use xlink:href="#39" y="36.907"/><use xlink:href="#40" y="39.078"/><use xlink:href="#41" y="41.249"/><use xlink:href="#42" y="43.42"/><use xlink:href="#4" y="45.591"/><use xlink:href="#43" y="47.762"/><use xlink:href="#44" y="49.933"/></svg><svg x="2050"><use xlink:href="#a"/><use xlink:href="#26"/><use xlink:href="#4" y="2.171"/><use xlink:href="#27" y="4.342"/><use xlink:href="#28" y="6.513"/><use xlink:href="#29" y="8.684"/><use xlink:href="#4" y="10.855"/><use xlink:href="#30" y="13.026"/><use xlink:href="#31" y="15.197"/><use xlink:href="#32" y="17.368"/><use xlink:href="#33" y="19.539"/><use xlink:href="#34" y="21.71"/><use xlink:href="#35" y="23.881"/><use xlink:href="#36" y="26.052"/><use xlink:href="#4" y="28.223"/><use xlink:href="#37" y="30.394"/><use xlink:href="#38" y="32.565"/><use xlink:href="#39" y="34.736"/><use xlink:href="#40" y="36.907"/><use xlink:href="#41" y="39.078"/><use xlink:href="#42" y="41.249"/><use xlink:href="#4" y="43.42"/><use xlink:href="#43" y="45.591"/><use xlink:href="#44" y="47.762"/><use xlink:href="#45" y="49.933"/></svg><svg x="2132"><use xlink:href="#a"/><use xlink:href="#4"/><use xlink:href="#27" y="2.171"/><use xlink:href="#28" y="4.342"/><use xlink:href="#29" y="6.513"/><use xlink:href="#4" y="8.684"/><use xlink:href="#30" y="10.855"/><use xlink:href="#31" y="13.026"/><use xlink:href="#32" y="15.197"/><use xlink:href="#33" y="17.368"/><use xlink:href="#34" y="19.539"/><use xlink:href="#35" y="21.71"/><use xlink:href="#36" y="23.881"/><use xlink:href="#4" y="26.052"/><use xlink:href="#37" y="28.223"/><use xlink:href="#38" y="30.394"/><use xlink:href="#39" y="32.565"/><use xlink:href="#40" y="34.736"/><use xlink:href="#41" y="36.907"/><use xlink:href="#42" y="39.078"/><use xlink:href="#4" y="41.249"/><use xlink:href="#43" y="43.42"/><use xlink:href="#44" y="45.591"/><use xlink:href="#45" y="47.762"/><use xlink:href="#46" y="49.933"/></svg><svg x="2214"><use xlink:href="#a"/><use xlink:href="#27"/><use xlink:href="#28" y="2.171"/><use xlink:href="#29" y="4.342"/><use xlink:href="#4" y="6.513"/><use xlink:href="#30" y="8.684"/><use xlink:href="#31" y="10.855"/><use xlink:href="#32" y="13.026"/><use xlink:href="#33" y="15.197"/><use xlink:href="#34" y="17.368"/><use xlink:href="#35" y="19.539"/><use xlink:href="#36" y="21.71"/><use xlink:href="#4" y="23.881"/><use xlink:href="#37" y="26.052"/><use xlink:href="#38" y="28.223"/><use xlink:href="#39" y="30.394"/><use xlink:href="#40" y="32.565"/><use xlink:href="#41" y="34.736"/><use xlink:href="#42" y="36.907"/><use xlink:href="#4" y="39.078"/><use xlink:href="#43" y="41.249"/><use xlink:href="#44" y="43.42"/><use xlink:href="#45" y="45.591"/><use xlink:href="#46" y="47.762"/><use xlink:href="#47" y="49.933"/></svg><svg x="2296"><use xlink:href="#a"/><use xlink:href="#28"/><use xlink:href="#29" y="2.171"/><use xlink:href="#4" y="4.342"/><use xlink:href="#30" y="6.513"/><use xlink:href="#31" y="8.684"/><use xlink:href="#32" y="10.855"/><use xlink:href="#33" y="13.026"/><use xlink:href="#34" y="15.197"/><use xlink:href="#35" y="17.368"/><use xlink:href="#36" y="19.539"/><use xlink:href="#4" y="21.71"/><use xlink:href="#37" y="23.881"/><use xlink:href="#38" y="26.052"/><use xlink:href="#39" y="28.223"/><use xlink:href="#40" y="30.394"/><use xlink:href="#41" y="32.565"/><use xlink:href="#42" y="34.736"/><use xlink:href="#4" y="36.907"/><use xlink:href="#43" y="39.078"/><use xlink:href="#44" y="41.249"/><use xlink:href="#45" y="43.42"/><use xlink:href="#46" y="45.591"/><use xlink:href="#47" y="47.762"/><use xlink:href="#48" y="49.933"/></svg><svg x="2378"><use xlink:href="#a"/><use xlink:href="#29"/><use xlink:href="#4" y="2.171"/><use xlink:href="#30" y="4.342"/><use xlink:href="#31" y="6.513"/><use xlink:href="#32" y="8.684"/><use xlink:href="#33" y="10.855"/><use xlink:href="#34" y="13.026"/><use xlink:href="#35" y="15.197"/><use xlink:href="#36" y="17.368"/><use xlink:href="#4" y="19.539"/><use xlink:href="#37" y="21.71"/><use xlink:href="#38" y="23.881"/><use xlink:href="#39" y="26.052"/><use xlink:href="#40" y="28.223"/><use xlink:href="#41" y="30.394"/><use xlink:href="#42" y="32.565"/><use xlink:href="#4" y="34.736"/><use xlink:href="#43" y="36.907"/><use xlink:href="#44" y="39.078"/><use xlink:href="#45" y="41.249"/><use xlink:href="#46" y="43.42"/><use xlink:href="#47" y="45.591"/><use xlink:href="#48" y="47.762"/><use xlink:href="#49" y="49.933"/></svg><svg x="2460"><use xlink:href="#a"/><use xlink:href="#4"/><use xlink:href="#30" y="2.171"/><use xlink:href="#31" y="4.342"/><use xlink:href="#32" y="6.513"/><use xlink:href="#33" y="8.684"/><use xlink:href="#34" y="10.855"/><use xlink:href="#35" y="13.026"/><use xlink:href="#36" y="15.197"/><use xlink:href="#4" y="17.368"/><use xlink:href="#37" y="19.539"/><use xlink:href="#38" y="21.71"/><use xlink:href="#39" y="23.881"/><use xlink:href="#40" y="26.052"/><use xlink:href="#41" y="28.223"/><use xlink:href="#42" y="30.394"/><use xlink:href="#4" y="32.565"/><use xlink:href="#43" y="34.736"/><use xlink:href="#44" y="36.907"/><use xlink:href="#45" y="39.078"/><use xlink:href="#46" y="41.249"/><use xlink:href="#47" y="43.42"/><use xlink:href="#48" y="45.591"/><use xlink:href="#49" y="47.762"/><use xlink:href="#4" y="49.933"/></svg><svg x="2542"><use xlink:href="#a"/><use xlink:href="#34"/><use xlink:href="#35" y="2.171"/><use xlink:href="#36" y="4.342"/><use xlink:href="#4" y="6.513"/><use xlink:href="#37" y="8.684"/><use xlink:href="#38" y="10.855"/><use xlink:href="#39" y="13.026"/><use xlink:href="#40" y="15.197"/><use xlink:href="#41" y="17.368"/><use xlink:href="#42" y="19.539"/><use xlink:href="#4" y="21.71"/><use xlink:href="#43" y="23.881"/><use xlink:href="#44" y="26.052"/><use xlink:href="#45" y="28.223"/><use xlink:href="#46" y="30.394"/><use xlink:href="#47" y="32.565"/><use xlink:href="#48" y="34.736"/><use xlink:href="#49" y="36.907"/><use xlink:href="#4" y="39.078"/><text y="42.919" class="f">RESULT:</text><text x="8.016" y="42.919" class="f">PASS</text><text x="13.026" y="42.919" class="f">--</text><text x="16.032" y="42.919" class="f">codex-agent</text><text x="28.056" y="42.919" class="f">crashed,</text><text x="37.074" y="42.919" class="f">its</text><text x="41.082" y="42.919" class="f">lease</text><text x="47.094" y="42.919" class="f">expired</text><text x="55.11" y="42.919" class="f">after</text><text x="61.122" y="42.919" class="f">2s,</text><text x="65.13" y="42.919" class="f">human-with-curl</text><text x="81.162" y="42.919" class="f">r</text><text y="45.09" class="f">eclaimed</text><text x="9.018" y="45.09" class="f">the</text><text x="13.026" y="45.09" class="f">card</text><text x="18.036" y="45.09" class="f">via</text><text x="22.044" y="45.09" class="f">list_ready</text><text x="33.066" y="45.09" class="f">in</text><text x="36.072" y="45.09" class="f">2s</text><text x="39.078" y="45.09" class="f">with</text><text x="44.088" y="45.09" class="f">no</text><text x="47.094" y="45.09" class="f">human</text><text x="53.106" y="45.09" class="f">editing</text><text x="61.122" y="45.09" class="f">any</text><text x="65.13" y="45.09" class="f">file,</text><text x="71.142" y="45.09" class="f">and</text><text x="75.15" y="45.09" class="f">the</text><text x="79.158" y="45.09" class="f">ful</text><text y="47.261" class="f">l</text><text x="2.004" y="47.261" class="f">claim</text><text x="8.016" y="47.261" class="f">A</text><text x="10.02" y="47.261" class="f">-&gt;</text><text x="13.026" y="47.261" class="f">claim-expired</text><text x="27.054" y="47.261" class="f">-&gt;</text><text x="30.06" y="47.261" class="f">claim</text><text x="36.072" y="47.261" class="f">B</text><text x="38.076" y="47.261" class="f">-&gt;</text><text x="41.082" y="47.261" class="f">completed</text><text x="51.102" y="47.261" class="f">trail</text><text x="57.114" y="47.261" class="f">is</text><text x="60.12" y="47.261" class="f">recorded</text><text x="69.138" y="47.261" class="f">against</text><text x="77.154" y="47.261" class="f">the</text><text x="81.162" y="47.261" class="f">c</text><text y="49.432" class="f">ard,</text><text x="5.01" y="49.432" class="f">each</text><text x="10.02" y="49.432" class="f">event</text><text x="16.032" y="49.432" class="f">attributed</text><text x="27.054" y="49.432" class="f">to</text><text x="30.06" y="49.432" class="f">the</text><text x="34.068" y="49.432" class="f">actor</text><text x="40.08" y="49.432" class="f">that</text><text x="45.09" y="49.432" class="f">caused</text><text x="52.104" y="49.432" class="f">it</text><text x="55.11" y="49.432" class="f">(runs</text><text x="61.122" y="49.432" class="f">table</text><text x="67.134" y="49.432" class="f">for</text><text x="71.142" y="49.432" class="f">both</text><text x="76.152" y="49.432" class="f">claims</text><text y="51.603" class="f">,</text><text x="2.004" y="51.603" class="f">outbound</text><text x="11.022" y="51.603" class="f">event</text><text x="17.034" y="51.603" class="f">tail</text><text x="22.044" y="51.603" class="f">for</text><text x="26.052" y="51.603" class="f">claim-expired</text><text x="40.08" y="51.603" class="f">and</text><text x="44.088" y="51.603" class="f">completed).</text></svg></svg></g></g></svg></svg>